<svg width="611" height="400" viewBox="0 0 611 400" fill="none" xmlns="http://www.w3.org/2000/svg">
<rect x="1" y="2" width="606" height="391" rx="32" fill="url(#paint0_radial_1012_473)" fill-opacity="0.3"/>
<rect x="1" y="2" width="606" height="391" rx="32" stroke="url(#paint1_linear_1012_473)"/>
<g filter="url(#filter1_d_1012_473)">
<mask id="path-2-inside-1_1012_473" fill="white">
<path d="M24 34C24 27.3726 29.3726 22 36 22H575C581.627 22 587 27.3726 587 34V362C587 368.627 581.627 374 575 374H36C29.3726 374 24 368.627 24 362V34Z"/>
</mask>
<path d="M24 34C24 27.3726 29.3726 22 36 22H575C581.627 22 587 27.3726 587 34V362C587 368.627 581.627 374 575 374H36C29.3726 374 24 368.627 24 362V34Z" fill="white"/>
<path d="M36 22V26H575V22V18H36V22ZM587 34H583V362H587H591V34H587ZM575 374V370H36V374V378H575V374ZM24 362H28V34H24H20V362H24ZM36 374V370C31.5817 370 28 366.418 28 362H24H20C20 370.837 27.1634 378 36 378V374ZM587 362H583C583 366.418 579.418 370 575 370V374V378C583.837 378 591 370.837 591 362H587ZM575 22V26C579.418 26 583 29.5817 583 34H587H591C591 25.1634 583.837 18 575 18V22ZM36 22V18C27.1634 18 20 25.1635 20 34H24H28C28 29.5817 31.5817 26 36 26V22Z" fill="#E3ECFD" mask="url(#path-2-inside-1_1012_473)"/>
<mask id="path-4-inside-2_1012_473" fill="white">
<path d="M45 101C45 95.4771 49.4772 91 55 91H587V374H45V101Z"/>
</mask>
<path d="M45 101C45 95.4771 49.4772 91 55 91H587V374H45V101Z" fill="white"/>
<path d="M44 101C44 94.9249 48.9249 90 55 90H588L586 92H55C50.0294 92 46 96.0294 46 101H44ZM587 374H45H587ZM44 374V101C44 94.9249 48.9249 90 55 90V92C50.0294 92 46 96.0294 46 101V374H44ZM588 90V374H586V92L588 90Z" fill="#E7E7E7" mask="url(#path-4-inside-2_1012_473)"/>
<path d="M62.86 111V103.8H63.71L67.84 109.86L67.72 109.88V103.8H68.5V111H67.65L63.52 104.94L63.64 104.92V111H62.86ZM73.2933 111C73.2666 110.887 73.2466 110.757 73.2333 110.61C73.2266 110.463 73.2233 110.277 73.2233 110.05H73.1733V107.61C73.1733 107.223 73.0833 106.94 72.9033 106.76C72.7299 106.573 72.4466 106.48 72.0533 106.48C71.6666 106.48 71.3566 106.56 71.1233 106.72C70.8966 106.873 70.7699 107.093 70.7433 107.38H69.9733C70.0066 106.887 70.2133 106.5 70.5933 106.22C70.9733 105.94 71.4699 105.8 72.0833 105.8C72.7166 105.8 73.1866 105.95 73.4933 106.25C73.7999 106.55 73.9533 107 73.9533 107.6V110.05C73.9533 110.197 73.9633 110.35 73.9833 110.51C74.0033 110.663 74.0299 110.827 74.0633 111H73.2933ZM71.5433 111.1C71.0166 111.1 70.5966 110.973 70.2833 110.72C69.9766 110.46 69.8233 110.107 69.8233 109.66C69.8233 109.213 69.9766 108.867 70.2833 108.62C70.5899 108.373 71.0366 108.2 71.6233 108.1L73.4033 107.8V108.46L71.7433 108.72C71.3699 108.78 71.0866 108.88 70.8933 109.02C70.6999 109.16 70.6033 109.363 70.6033 109.63C70.6033 109.89 70.6899 110.087 70.8633 110.22C71.0433 110.353 71.3066 110.42 71.6533 110.42C72.0999 110.42 72.4633 110.32 72.7433 110.12C73.0299 109.913 73.1733 109.647 73.1733 109.32L73.3033 110.03C73.1966 110.37 72.9866 110.633 72.6733 110.82C72.3666 111.007 71.9899 111.1 71.5433 111.1ZM75.4953 111V105.9H76.2453V107.1H76.2953V111H75.4953ZM78.9353 111V107.62C78.9353 107.233 78.8486 106.95 78.6753 106.77C78.502 106.59 78.252 106.5 77.9253 106.5C77.6186 106.5 77.342 106.573 77.0953 106.72C76.8486 106.867 76.652 107.07 76.5053 107.33C76.3653 107.59 76.2953 107.893 76.2953 108.24L76.1653 107.03C76.3386 106.65 76.5986 106.35 76.9453 106.13C77.292 105.91 77.6686 105.8 78.0753 105.8C78.5686 105.8 78.9686 105.947 79.2753 106.24C79.582 106.527 79.7353 106.917 79.7353 107.41V111H78.9353ZM82.3753 111V107.62C82.3753 107.233 82.2886 106.95 82.1153 106.77C81.942 106.59 81.692 106.5 81.3653 106.5C81.0586 106.5 80.782 106.573 80.5353 106.72C80.2886 106.867 80.092 107.07 79.9453 107.33C79.8053 107.59 79.7353 107.893 79.7353 108.24L79.5353 107.03C79.7086 106.65 79.9753 106.35 80.3353 106.13C80.6953 105.91 81.082 105.8 81.4953 105.8C81.9886 105.8 82.392 105.947 82.7053 106.24C83.0186 106.527 83.1753 106.917 83.1753 107.41V111H82.3753ZM86.8041 111.1C86.3174 111.1 85.8874 110.987 85.5141 110.76C85.1407 110.527 84.8474 110.21 84.6341 109.81C84.4207 109.41 84.3141 108.95 84.3141 108.43C84.3141 107.91 84.4174 107.453 84.6241 107.06C84.8374 106.66 85.1341 106.35 85.5141 106.13C85.8941 105.91 86.3307 105.8 86.8241 105.8C87.2974 105.8 87.7074 105.903 88.0541 106.11C88.4074 106.317 88.6774 106.607 88.8641 106.98C89.0574 107.353 89.1541 107.793 89.1541 108.3C89.1541 108.367 89.1507 108.43 89.1441 108.49C89.1441 108.55 89.1374 108.617 89.1241 108.69H84.9141V108.02H88.6341L88.3741 108.39C88.3741 107.777 88.2374 107.307 87.9641 106.98C87.6974 106.647 87.3174 106.48 86.8241 106.48C86.3174 106.48 85.9074 106.657 85.5941 107.01C85.2874 107.357 85.1341 107.827 85.1341 108.42C85.1341 109.027 85.2874 109.513 85.5941 109.88C85.9074 110.24 86.3241 110.42 86.8441 110.42C87.1707 110.42 87.4574 110.35 87.7041 110.21C87.9507 110.063 88.1307 109.857 88.2441 109.59H89.0041C88.8374 110.057 88.5574 110.427 88.1641 110.7C87.7774 110.967 87.3241 111.1 86.8041 111.1Z" fill="black"/>
<path d="M165.44 111.1C165.187 111.1 164.943 111.08 164.71 111.04C164.477 111.007 164.307 110.963 164.2 110.91V110.15C164.36 110.217 164.553 110.273 164.78 110.32C165.007 110.36 165.237 110.38 165.47 110.38C165.95 110.38 166.313 110.273 166.56 110.06C166.807 109.847 166.93 109.52 166.93 109.08V103.8H167.75V109.11C167.75 109.777 167.553 110.277 167.16 110.61C166.767 110.937 166.193 111.1 165.44 111.1ZM171.432 111.1C170.932 111.1 170.492 110.983 170.112 110.75C169.732 110.517 169.435 110.2 169.222 109.8C169.015 109.393 168.912 108.937 168.912 108.43C168.912 107.917 169.018 107.463 169.232 107.07C169.445 106.677 169.738 106.367 170.112 106.14C170.492 105.913 170.932 105.8 171.432 105.8C171.938 105.8 172.378 105.913 172.752 106.14C173.132 106.367 173.425 106.677 173.632 107.07C173.845 107.463 173.952 107.917 173.952 108.43C173.952 108.937 173.845 109.393 173.632 109.8C173.425 110.2 173.132 110.517 172.752 110.75C172.378 110.983 171.938 111.1 171.432 111.1ZM171.432 110.42C171.778 110.42 172.078 110.337 172.332 110.17C172.585 109.997 172.782 109.76 172.922 109.46C173.062 109.16 173.132 108.813 173.132 108.42C173.132 107.833 172.975 107.363 172.662 107.01C172.355 106.657 171.945 106.48 171.432 106.48C170.925 106.48 170.515 106.657 170.202 107.01C169.888 107.363 169.732 107.833 169.732 108.42C169.732 108.813 169.802 109.16 169.942 109.46C170.082 109.76 170.278 109.997 170.532 110.17C170.792 110.337 171.092 110.42 171.432 110.42ZM177.672 111.09C177.192 111.09 176.788 110.973 176.462 110.74C176.135 110.507 175.912 110.177 175.792 109.75L175.902 109.73V111H175.152V103.8H175.952V107.09L175.842 107.06C175.968 106.667 176.198 106.36 176.532 106.14C176.872 105.913 177.275 105.8 177.742 105.8C178.195 105.8 178.588 105.91 178.922 106.13C179.262 106.35 179.525 106.657 179.712 107.05C179.898 107.443 179.992 107.903 179.992 108.43C179.992 108.963 179.895 109.43 179.702 109.83C179.508 110.23 179.238 110.54 178.892 110.76C178.545 110.98 178.138 111.09 177.672 111.09ZM177.552 110.39C178.058 110.39 178.455 110.217 178.742 109.87C179.028 109.517 179.172 109.037 179.172 108.43C179.172 107.83 179.028 107.36 178.742 107.02C178.455 106.673 178.058 106.5 177.552 106.5C177.045 106.5 176.645 106.677 176.352 107.03C176.058 107.377 175.912 107.853 175.912 108.46C175.912 109.053 176.058 109.523 176.352 109.87C176.645 110.217 177.045 110.39 177.552 110.39ZM185.248 111V104.52H182.778V103.8H188.538V104.52H186.068V111H185.248ZM189.585 111V105.9H190.385V111H189.585ZM189.525 104.74V103.8H190.445V104.74H189.525ZM194.008 111.09C193.441 111.09 193.028 110.963 192.768 110.71C192.515 110.45 192.388 110.077 192.388 109.59V104.71L193.188 104.41V109.58C193.188 109.867 193.261 110.077 193.408 110.21C193.555 110.343 193.795 110.41 194.128 110.41C194.261 110.41 194.375 110.403 194.468 110.39C194.568 110.37 194.648 110.347 194.708 110.32V111C194.641 111.027 194.545 111.047 194.418 111.06C194.298 111.08 194.161 111.09 194.008 111.09ZM191.338 106.58V105.9H194.708V106.58H191.338ZM195.738 111V103.8H196.538V111H195.738ZM200.23 111.1C199.743 111.1 199.313 110.987 198.94 110.76C198.567 110.527 198.273 110.21 198.06 109.81C197.847 109.41 197.74 108.95 197.74 108.43C197.74 107.91 197.843 107.453 198.05 107.06C198.263 106.66 198.56 106.35 198.94 106.13C199.32 105.91 199.757 105.8 200.25 105.8C200.723 105.8 201.133 105.903 201.48 106.11C201.833 106.317 202.103 106.607 202.29 106.98C202.483 107.353 202.58 107.793 202.58 108.3C202.58 108.367 202.577 108.43 202.57 108.49C202.57 108.55 202.563 108.617 202.55 108.69H198.34V108.02H202.06L201.8 108.39C201.8 107.777 201.663 107.307 201.39 106.98C201.123 106.647 200.743 106.48 200.25 106.48C199.743 106.48 199.333 106.657 199.02 107.01C198.713 107.357 198.56 107.827 198.56 108.42C198.56 109.027 198.713 109.513 199.02 109.88C199.333 110.24 199.75 110.42 200.27 110.42C200.597 110.42 200.883 110.35 201.13 110.21C201.377 110.063 201.557 109.857 201.67 109.59H202.43C202.263 110.057 201.983 110.427 201.59 110.7C201.203 110.967 200.75 111.1 200.23 111.1Z" fill="black"/>
<path d="M259.86 111V103.8H260.68V111H259.86ZM260.28 111V110.28H264.68V111H260.28ZM260.28 107.61V106.89H264.32V107.61H260.28ZM260.28 104.52V103.8H264.6V104.52H260.28ZM266.177 111V105.9H266.927V107.1H266.977V111H266.177ZM269.617 111V107.62C269.617 107.233 269.53 106.95 269.357 106.77C269.184 106.59 268.934 106.5 268.607 106.5C268.3 106.5 268.024 106.573 267.777 106.72C267.53 106.867 267.334 107.07 267.187 107.33C267.047 107.59 266.977 107.893 266.977 108.24L266.847 107.03C267.02 106.65 267.28 106.35 267.627 106.13C267.974 105.91 268.35 105.8 268.757 105.8C269.25 105.8 269.65 105.947 269.957 106.24C270.264 106.527 270.417 106.917 270.417 107.41V111H269.617ZM273.057 111V107.62C273.057 107.233 272.97 106.95 272.797 106.77C272.624 106.59 272.374 106.5 272.047 106.5C271.74 106.5 271.464 106.573 271.217 106.72C270.97 106.867 270.774 107.07 270.627 107.33C270.487 107.59 270.417 107.893 270.417 108.24L270.217 107.03C270.39 106.65 270.657 106.35 271.017 106.13C271.377 105.91 271.764 105.8 272.177 105.8C272.67 105.8 273.074 105.947 273.387 106.24C273.7 106.527 273.857 106.917 273.857 107.41V111H273.057ZM278.496 111C278.47 110.887 278.45 110.757 278.436 110.61C278.43 110.463 278.426 110.277 278.426 110.05H278.376V107.61C278.376 107.223 278.286 106.94 278.106 106.76C277.933 106.573 277.65 106.48 277.256 106.48C276.87 106.48 276.56 106.56 276.326 106.72C276.1 106.873 275.973 107.093 275.946 107.38H275.176C275.21 106.887 275.416 106.5 275.796 106.22C276.176 105.94 276.673 105.8 277.286 105.8C277.92 105.8 278.39 105.95 278.696 106.25C279.003 106.55 279.156 107 279.156 107.6V110.05C279.156 110.197 279.166 110.35 279.186 110.51C279.206 110.663 279.233 110.827 279.266 111H278.496ZM276.746 111.1C276.22 111.1 275.8 110.973 275.486 110.72C275.18 110.46 275.026 110.107 275.026 109.66C275.026 109.213 275.18 108.867 275.486 108.62C275.793 108.373 276.24 108.2 276.826 108.1L278.606 107.8V108.46L276.946 108.72C276.573 108.78 276.29 108.88 276.096 109.02C275.903 109.16 275.806 109.363 275.806 109.63C275.806 109.89 275.893 110.087 276.066 110.22C276.246 110.353 276.51 110.42 276.856 110.42C277.303 110.42 277.666 110.32 277.946 110.12C278.233 109.913 278.376 109.647 278.376 109.32L278.506 110.03C278.4 110.37 278.19 110.633 277.876 110.82C277.57 111.007 277.193 111.1 276.746 111.1ZM280.698 111V105.9H281.498V111H280.698ZM280.638 104.74V103.8H281.558V104.74H280.638ZM283.101 111V103.8H283.901V111H283.101ZM285.303 111.6L287.833 103.5H288.533L286.003 111.6H285.303ZM289.997 111V103.8H292.857C293.37 103.8 293.807 103.883 294.167 104.05C294.527 104.217 294.8 104.457 294.987 104.77C295.18 105.083 295.277 105.46 295.277 105.9C295.277 106.34 295.18 106.72 294.987 107.04C294.8 107.353 294.527 107.597 294.167 107.77C293.807 107.943 293.37 108.03 292.857 108.03H290.597V107.31H292.827C293.36 107.31 293.763 107.19 294.037 106.95C294.317 106.703 294.457 106.353 294.457 105.9C294.457 105.447 294.32 105.103 294.047 104.87C293.773 104.637 293.367 104.52 292.827 104.52H290.817V111H289.997ZM296.499 111V103.8H297.299V111H296.499ZM300.149 111V107.66C300.149 107.273 300.053 106.983 299.859 106.79C299.666 106.597 299.379 106.5 298.999 106.5C298.666 106.5 298.369 106.573 298.109 106.72C297.856 106.867 297.656 107.07 297.509 107.33C297.369 107.59 297.299 107.893 297.299 108.24L297.169 107.03C297.343 106.65 297.606 106.35 297.959 106.13C298.319 105.91 298.726 105.8 299.179 105.8C299.713 105.8 300.139 105.953 300.459 106.26C300.786 106.56 300.949 106.957 300.949 107.45V111H300.149ZM304.606 111.1C304.106 111.1 303.666 110.983 303.286 110.75C302.906 110.517 302.609 110.2 302.396 109.8C302.189 109.393 302.086 108.937 302.086 108.43C302.086 107.917 302.192 107.463 302.406 107.07C302.619 106.677 302.912 106.367 303.286 106.14C303.666 105.913 304.106 105.8 304.606 105.8C305.112 105.8 305.552 105.913 305.926 106.14C306.306 106.367 306.599 106.677 306.806 107.07C307.019 107.463 307.126 107.917 307.126 108.43C307.126 108.937 307.019 109.393 306.806 109.8C306.599 110.2 306.306 110.517 305.926 110.75C305.552 110.983 305.112 111.1 304.606 111.1ZM304.606 110.42C304.952 110.42 305.252 110.337 305.506 110.17C305.759 109.997 305.956 109.76 306.096 109.46C306.236 109.16 306.306 108.813 306.306 108.42C306.306 107.833 306.149 107.363 305.836 107.01C305.529 106.657 305.119 106.48 304.606 106.48C304.099 106.48 303.689 106.657 303.376 107.01C303.062 107.363 302.906 107.833 302.906 108.42C302.906 108.813 302.976 109.16 303.116 109.46C303.256 109.76 303.452 109.997 303.706 110.17C303.966 110.337 304.266 110.42 304.606 110.42ZM308.325 111V105.9H309.075V107.1H309.125V111H308.325ZM311.975 111V107.66C311.975 107.273 311.879 106.983 311.685 106.79C311.492 106.597 311.205 106.5 310.825 106.5C310.492 106.5 310.195 106.573 309.935 106.72C309.682 106.867 309.482 107.07 309.335 107.33C309.195 107.59 309.125 107.893 309.125 108.24L308.995 107.03C309.169 106.65 309.432 106.35 309.785 106.13C310.145 105.91 310.552 105.8 311.005 105.8C311.539 105.8 311.965 105.953 312.285 106.26C312.612 106.56 312.775 106.957 312.775 107.45V111H311.975ZM316.402 111.1C315.915 111.1 315.485 110.987 315.112 110.76C314.738 110.527 314.445 110.21 314.232 109.81C314.018 109.41 313.912 108.95 313.912 108.43C313.912 107.91 314.015 107.453 314.222 107.06C314.435 106.66 314.732 106.35 315.112 106.13C315.492 105.91 315.928 105.8 316.422 105.8C316.895 105.8 317.305 105.903 317.652 106.11C318.005 106.317 318.275 106.607 318.462 106.98C318.655 107.353 318.752 107.793 318.752 108.3C318.752 108.367 318.748 108.43 318.742 108.49C318.742 108.55 318.735 108.617 318.722 108.69H314.512V108.02H318.232L317.972 108.39C317.972 107.777 317.835 107.307 317.562 106.98C317.295 106.647 316.915 106.48 316.422 106.48C315.915 106.48 315.505 106.657 315.192 107.01C314.885 107.357 314.732 107.827 314.732 108.42C314.732 109.027 314.885 109.513 315.192 109.88C315.505 110.24 315.922 110.42 316.442 110.42C316.768 110.42 317.055 110.35 317.302 110.21C317.548 110.063 317.728 109.857 317.842 109.59H318.602C318.435 110.057 318.155 110.427 317.762 110.7C317.375 110.967 316.922 111.1 316.402 111.1Z" fill="black"/>
<path d="M421.86 111V103.8H424.52C425.033 103.8 425.47 103.883 425.83 104.05C426.19 104.217 426.463 104.45 426.65 104.75C426.843 105.043 426.94 105.393 426.94 105.8C426.94 106.207 426.843 106.563 426.65 106.87C426.463 107.17 426.19 107.407 425.83 107.58C425.47 107.747 425.033 107.83 424.52 107.83H422.46V107.11H424.49C425.023 107.11 425.427 106.993 425.7 106.76C425.98 106.527 426.12 106.207 426.12 105.8C426.12 105.4 425.983 105.087 425.71 104.86C425.437 104.633 425.03 104.52 424.49 104.52H422.68V111H421.86ZM426.08 111L422.25 107.43H423.37L427.32 111H426.08ZM430.15 111.1C429.663 111.1 429.233 110.987 428.86 110.76C428.486 110.527 428.193 110.21 427.98 109.81C427.766 109.41 427.66 108.95 427.66 108.43C427.66 107.91 427.763 107.453 427.97 107.06C428.183 106.66 428.48 106.35 428.86 106.13C429.24 105.91 429.676 105.8 430.17 105.8C430.643 105.8 431.053 105.903 431.4 106.11C431.753 106.317 432.023 106.607 432.21 106.98C432.403 107.353 432.5 107.793 432.5 108.3C432.5 108.367 432.496 108.43 432.49 108.49C432.49 108.55 432.483 108.617 432.47 108.69H428.26V108.02H431.98L431.72 108.39C431.72 107.777 431.583 107.307 431.31 106.98C431.043 106.647 430.663 106.48 430.17 106.48C429.663 106.48 429.253 106.657 428.94 107.01C428.633 107.357 428.48 107.827 428.48 108.42C428.48 109.027 428.633 109.513 428.94 109.88C429.253 110.24 429.67 110.42 430.19 110.42C430.516 110.42 430.803 110.35 431.05 110.21C431.296 110.063 431.476 109.857 431.59 109.59H432.35C432.183 110.057 431.903 110.427 431.51 110.7C431.123 110.967 430.67 111.1 430.15 111.1ZM435.434 111.1C434.808 111.1 434.308 110.957 433.934 110.67C433.561 110.377 433.348 109.963 433.294 109.43H434.064C434.111 109.757 434.254 110.007 434.494 110.18C434.734 110.353 435.054 110.44 435.454 110.44C435.808 110.44 436.084 110.373 436.284 110.24C436.484 110.107 436.584 109.917 436.584 109.67C436.584 109.497 436.528 109.347 436.414 109.22C436.301 109.087 436.074 108.977 435.734 108.89L434.914 108.68C434.448 108.56 434.098 108.377 433.864 108.13C433.631 107.877 433.514 107.577 433.514 107.23C433.514 106.79 433.678 106.443 434.004 106.19C434.331 105.93 434.774 105.8 435.334 105.8C435.888 105.8 436.338 105.933 436.684 106.2C437.031 106.467 437.228 106.837 437.274 107.31H436.504C436.458 107.037 436.331 106.827 436.124 106.68C435.918 106.533 435.644 106.46 435.304 106.46C434.978 106.46 434.724 106.523 434.544 106.65C434.364 106.77 434.274 106.943 434.274 107.17C434.274 107.343 434.338 107.493 434.464 107.62C434.598 107.747 434.818 107.853 435.124 107.94L435.924 108.16C436.398 108.287 436.754 108.48 436.994 108.74C437.234 109 437.354 109.313 437.354 109.68C437.354 110.127 437.184 110.477 436.844 110.73C436.504 110.977 436.034 111.1 435.434 111.1ZM440.159 111.1C439.826 111.1 439.529 111.033 439.269 110.9C439.009 110.76 438.806 110.567 438.659 110.32C438.513 110.067 438.439 109.777 438.439 109.45V105.9H439.239V109.24C439.239 109.627 439.333 109.917 439.519 110.11C439.713 110.303 439.986 110.4 440.339 110.4C440.659 110.4 440.943 110.327 441.189 110.18C441.436 110.033 441.629 109.83 441.769 109.57C441.916 109.303 441.989 109 441.989 108.66L442.119 109.87C441.953 110.25 441.693 110.55 441.339 110.77C440.986 110.99 440.593 111.1 440.159 111.1ZM442.039 111V109.8H441.989V105.9H442.789V111H442.039ZM444.388 111V105.9H445.138V107.1H445.188V111H444.388ZM447.828 111V107.62C447.828 107.233 447.741 106.95 447.568 106.77C447.395 106.59 447.145 106.5 446.818 106.5C446.511 106.5 446.235 106.573 445.988 106.72C445.741 106.867 445.545 107.07 445.398 107.33C445.258 107.59 445.188 107.893 445.188 108.24L445.058 107.03C445.231 106.65 445.491 106.35 445.838 106.13C446.185 105.91 446.561 105.8 446.968 105.8C447.461 105.8 447.861 105.947 448.168 106.24C448.475 106.527 448.628 106.917 448.628 107.41V111H447.828ZM451.268 111V107.62C451.268 107.233 451.181 106.95 451.008 106.77C450.835 106.59 450.585 106.5 450.258 106.5C449.951 106.5 449.675 106.573 449.428 106.72C449.181 106.867 448.985 107.07 448.838 107.33C448.698 107.59 448.628 107.893 448.628 108.24L448.428 107.03C448.601 106.65 448.868 106.35 449.228 106.13C449.588 105.91 449.975 105.8 450.388 105.8C450.881 105.8 451.285 105.947 451.598 106.24C451.911 106.527 452.068 106.917 452.068 107.41V111H451.268ZM455.697 111.1C455.21 111.1 454.78 110.987 454.407 110.76C454.033 110.527 453.74 110.21 453.527 109.81C453.313 109.41 453.207 108.95 453.207 108.43C453.207 107.91 453.31 107.453 453.517 107.06C453.73 106.66 454.027 106.35 454.407 106.13C454.787 105.91 455.223 105.8 455.717 105.8C456.19 105.8 456.6 105.903 456.947 106.11C457.3 106.317 457.57 106.607 457.757 106.98C457.95 107.353 458.047 107.793 458.047 108.3C458.047 108.367 458.043 108.43 458.037 108.49C458.037 108.55 458.03 108.617 458.017 108.69H453.807V108.02H457.527L457.267 108.39C457.267 107.777 457.13 107.307 456.857 106.98C456.59 106.647 456.21 106.48 455.717 106.48C455.21 106.48 454.8 106.657 454.487 107.01C454.18 107.357 454.027 107.827 454.027 108.42C454.027 109.027 454.18 109.513 454.487 109.88C454.8 110.24 455.217 110.42 455.737 110.42C456.063 110.42 456.35 110.35 456.597 110.21C456.843 110.063 457.023 109.857 457.137 109.59H457.897C457.73 110.057 457.45 110.427 457.057 110.7C456.67 110.967 456.217 111.1 455.697 111.1Z" fill="black"/>
<path d="M509.93 111.1C509.43 111.1 508.97 111.01 508.55 110.83C508.137 110.643 507.777 110.383 507.47 110.05C507.163 109.71 506.923 109.313 506.75 108.86C506.583 108.407 506.5 107.91 506.5 107.37C506.5 106.657 506.647 106.023 506.94 105.47C507.233 104.917 507.637 104.483 508.15 104.17C508.67 103.857 509.26 103.7 509.92 103.7C510.593 103.7 511.187 103.857 511.7 104.17C512.22 104.483 512.627 104.917 512.92 105.47C513.213 106.023 513.36 106.66 513.36 107.38C513.36 107.92 513.273 108.417 513.1 108.87C512.933 109.323 512.697 109.717 512.39 110.05C512.083 110.383 511.72 110.643 511.3 110.83C510.88 111.01 510.423 111.1 509.93 111.1ZM509.92 110.36C510.433 110.36 510.883 110.233 511.27 109.98C511.663 109.72 511.97 109.363 512.19 108.91C512.41 108.457 512.52 107.94 512.52 107.36C512.52 106.787 512.41 106.28 512.19 105.84C511.977 105.4 511.673 105.057 511.28 104.81C510.893 104.563 510.44 104.44 509.92 104.44C509.4 104.44 508.947 104.563 508.56 104.81C508.173 105.057 507.873 105.4 507.66 105.84C507.447 106.273 507.34 106.78 507.34 107.36C507.34 107.947 507.447 108.467 507.66 108.92C507.88 109.367 508.183 109.72 508.57 109.98C508.957 110.233 509.407 110.36 509.92 110.36ZM516.122 111L514.012 105.9H514.872L516.632 110.46H516.312L518.062 105.9H518.882L516.772 111H516.122ZM521.829 111.1C521.343 111.1 520.913 110.987 520.539 110.76C520.166 110.527 519.873 110.21 519.659 109.81C519.446 109.41 519.339 108.95 519.339 108.43C519.339 107.91 519.443 107.453 519.649 107.06C519.863 106.66 520.159 106.35 520.539 106.13C520.919 105.91 521.356 105.8 521.849 105.8C522.323 105.8 522.733 105.903 523.079 106.11C523.433 106.317 523.703 106.607 523.889 106.98C524.083 107.353 524.179 107.793 524.179 108.3C524.179 108.367 524.176 108.43 524.169 108.49C524.169 108.55 524.163 108.617 524.149 108.69H519.939V108.02H523.659L523.399 108.39C523.399 107.777 523.263 107.307 522.989 106.98C522.723 106.647 522.343 106.48 521.849 106.48C521.343 106.48 520.933 106.657 520.619 107.01C520.313 107.357 520.159 107.827 520.159 108.42C520.159 109.027 520.313 109.513 520.619 109.88C520.933 110.24 521.349 110.42 521.869 110.42C522.196 110.42 522.483 110.35 522.729 110.21C522.976 110.063 523.156 109.857 523.269 109.59H524.029C523.863 110.057 523.583 110.427 523.189 110.7C522.803 110.967 522.349 111.1 521.829 111.1ZM525.384 111V105.9H526.134V107.2H526.184V111H525.384ZM526.184 108.34L526.054 107.13C526.174 106.697 526.387 106.367 526.694 106.14C527.001 105.913 527.354 105.8 527.754 105.8C527.921 105.8 528.034 105.813 528.094 105.84V106.61C528.061 106.597 528.014 106.59 527.954 106.59C527.894 106.583 527.821 106.58 527.734 106.58C527.227 106.58 526.841 106.733 526.574 107.04C526.314 107.34 526.184 107.773 526.184 108.34ZM532.118 111C532.091 110.887 532.071 110.757 532.058 110.61C532.051 110.463 532.048 110.277 532.048 110.05H531.998V107.61C531.998 107.223 531.908 106.94 531.728 106.76C531.554 106.573 531.271 106.48 530.878 106.48C530.491 106.48 530.181 106.56 529.948 106.72C529.721 106.873 529.594 107.093 529.568 107.38H528.798C528.831 106.887 529.038 106.5 529.418 106.22C529.798 105.94 530.294 105.8 530.908 105.8C531.541 105.8 532.011 105.95 532.318 106.25C532.624 106.55 532.778 107 532.778 107.6V110.05C532.778 110.197 532.788 110.35 532.808 110.51C532.828 110.663 532.854 110.827 532.888 111H532.118ZM530.368 111.1C529.841 111.1 529.421 110.973 529.108 110.72C528.801 110.46 528.648 110.107 528.648 109.66C528.648 109.213 528.801 108.867 529.108 108.62C529.414 108.373 529.861 108.2 530.448 108.1L532.228 107.8V108.46L530.568 108.72C530.194 108.78 529.911 108.88 529.718 109.02C529.524 109.16 529.428 109.363 529.428 109.63C529.428 109.89 529.514 110.087 529.688 110.22C529.868 110.353 530.131 110.42 530.478 110.42C530.924 110.42 531.288 110.32 531.568 110.12C531.854 109.913 531.998 109.647 531.998 109.32L532.128 110.03C532.021 110.37 531.811 110.633 531.498 110.82C531.191 111.007 530.814 111.1 530.368 111.1ZM534.32 111V103.8H535.12V111H534.32ZM536.722 111V103.8H537.522V111H536.722ZM542.856 111.1C542.23 111.1 541.73 110.957 541.356 110.67C540.983 110.377 540.77 109.963 540.716 109.43H541.486C541.533 109.757 541.676 110.007 541.916 110.18C542.156 110.353 542.476 110.44 542.876 110.44C543.23 110.44 543.506 110.373 543.706 110.24C543.906 110.107 544.006 109.917 544.006 109.67C544.006 109.497 543.95 109.347 543.836 109.22C543.723 109.087 543.496 108.977 543.156 108.89L542.336 108.68C541.87 108.56 541.52 108.377 541.286 108.13C541.053 107.877 540.936 107.577 540.936 107.23C540.936 106.79 541.1 106.443 541.426 106.19C541.753 105.93 542.196 105.8 542.756 105.8C543.31 105.8 543.76 105.933 544.106 106.2C544.453 106.467 544.65 106.837 544.696 107.31H543.926C543.88 107.037 543.753 106.827 543.546 106.68C543.34 106.533 543.066 106.46 542.726 106.46C542.4 106.46 542.146 106.523 541.966 106.65C541.786 106.77 541.696 106.943 541.696 107.17C541.696 107.343 541.76 107.493 541.886 107.62C542.02 107.747 542.24 107.853 542.546 107.94L543.346 108.16C543.82 108.287 544.176 108.48 544.416 108.74C544.656 109 544.776 109.313 544.776 109.68C544.776 110.127 544.606 110.477 544.266 110.73C543.926 110.977 543.456 111.1 542.856 111.1ZM548.049 111.1C547.582 111.1 547.165 110.987 546.799 110.76C546.439 110.527 546.152 110.21 545.939 109.81C545.732 109.403 545.629 108.943 545.629 108.43C545.629 107.917 545.732 107.463 545.939 107.07C546.152 106.677 546.439 106.367 546.799 106.14C547.165 105.913 547.579 105.8 548.039 105.8C548.419 105.8 548.759 105.873 549.059 106.02C549.365 106.167 549.615 106.377 549.809 106.65C550.009 106.917 550.135 107.23 550.189 107.59H549.449C549.382 107.263 549.229 106.997 548.989 106.79C548.749 106.583 548.439 106.48 548.059 106.48C547.732 106.48 547.449 106.56 547.209 106.72C546.969 106.88 546.782 107.107 546.649 107.4C546.515 107.693 546.449 108.037 546.449 108.43C546.449 108.823 546.515 109.17 546.649 109.47C546.782 109.77 546.969 110.003 547.209 110.17C547.455 110.337 547.742 110.42 548.069 110.42C548.435 110.42 548.742 110.32 548.989 110.12C549.235 109.913 549.392 109.647 549.459 109.32H550.199C550.139 109.673 550.005 109.987 549.799 110.26C549.599 110.527 549.349 110.733 549.049 110.88C548.749 111.027 548.415 111.1 548.049 111.1ZM553.461 111.1C552.961 111.1 552.521 110.983 552.141 110.75C551.761 110.517 551.464 110.2 551.251 109.8C551.044 109.393 550.941 108.937 550.941 108.43C550.941 107.917 551.048 107.463 551.261 107.07C551.474 106.677 551.768 106.367 552.141 106.14C552.521 105.913 552.961 105.8 553.461 105.8C553.968 105.8 554.408 105.913 554.781 106.14C555.161 106.367 555.454 106.677 555.661 107.07C555.874 107.463 555.981 107.917 555.981 108.43C555.981 108.937 555.874 109.393 555.661 109.8C555.454 110.2 555.161 110.517 554.781 110.75C554.408 110.983 553.968 111.1 553.461 111.1ZM553.461 110.42C553.808 110.42 554.108 110.337 554.361 110.17C554.614 109.997 554.811 109.76 554.951 109.46C555.091 109.16 555.161 108.813 555.161 108.42C555.161 107.833 555.004 107.363 554.691 107.01C554.384 106.657 553.974 106.48 553.461 106.48C552.954 106.48 552.544 106.657 552.231 107.01C551.918 107.363 551.761 107.833 551.761 108.42C551.761 108.813 551.831 109.16 551.971 109.46C552.111 109.76 552.308 109.997 552.561 110.17C552.821 110.337 553.121 110.42 553.461 110.42ZM557.181 111V105.9H557.931V107.2H557.981V111H557.181ZM557.981 108.34L557.851 107.13C557.971 106.697 558.184 106.367 558.491 106.14C558.798 105.913 559.151 105.8 559.551 105.8C559.718 105.8 559.831 105.813 559.891 105.84V106.61C559.858 106.597 559.811 106.59 559.751 106.59C559.691 106.583 559.618 106.58 559.531 106.58C559.024 106.58 558.638 106.733 558.371 107.04C558.111 107.34 557.981 107.773 557.981 108.34ZM562.845 111.1C562.358 111.1 561.928 110.987 561.555 110.76C561.182 110.527 560.888 110.21 560.675 109.81C560.462 109.41 560.355 108.95 560.355 108.43C560.355 107.91 560.458 107.453 560.665 107.06C560.878 106.66 561.175 106.35 561.555 106.13C561.935 105.91 562.372 105.8 562.865 105.8C563.338 105.8 563.748 105.903 564.095 106.11C564.448 106.317 564.718 106.607 564.905 106.98C565.098 107.353 565.195 107.793 565.195 108.3C565.195 108.367 565.192 108.43 565.185 108.49C565.185 108.55 565.178 108.617 565.165 108.69H560.955V108.02H564.675L564.415 108.39C564.415 107.777 564.278 107.307 564.005 106.98C563.738 106.647 563.358 106.48 562.865 106.48C562.358 106.48 561.948 106.657 561.635 107.01C561.328 107.357 561.175 107.827 561.175 108.42C561.175 109.027 561.328 109.513 561.635 109.88C561.948 110.24 562.365 110.42 562.885 110.42C563.212 110.42 563.498 110.35 563.745 110.21C563.992 110.063 564.172 109.857 564.285 109.59H565.045C564.878 110.057 564.598 110.427 564.205 110.7C563.818 110.967 563.365 111.1 562.845 111.1Z" fill="black"/>
<rect x="62" y="133" width="85" height="18" rx="4" fill="#F2F7FF"/>
<rect x="62" y="172" width="85" height="18" rx="4" fill="#F2F7FF"/>
<rect x="62" y="210" width="85" height="18" rx="4" fill="#F2F7FF"/>
<rect x="62" y="248" width="85" height="18" rx="4" fill="#F2F7FF"/>
<rect x="62" y="286" width="85" height="18" rx="4" fill="#F2F7FF"/>
<rect x="62" y="324" width="85" height="18" rx="4" fill="#F2F7FF"/>
<rect x="164" y="133" width="83" height="18" rx="4" fill="#F2F7FF"/>
<rect x="164" y="172" width="83" height="18" rx="4" fill="#F2F7FF"/>
<rect x="164" y="210" width="83" height="18" rx="4" fill="#F2F7FF"/>
<rect x="164" y="248" width="83" height="18" rx="4" fill="#F2F7FF"/>
<rect x="164" y="286" width="83" height="18" rx="4" fill="#F2F7FF"/>
<rect x="164" y="324" width="83" height="18" rx="4" fill="#F2F7FF"/>
<rect x="259" y="133" width="125" height="18" rx="4" fill="#F2F7FF"/>
<rect x="259" y="172" width="125" height="18" rx="4" fill="#F2F7FF"/>
<rect x="259" y="210" width="125" height="18" rx="4" fill="#F2F7FF"/>
<rect x="259" y="248" width="125" height="18" rx="4" fill="#F2F7FF"/>
<rect x="259" y="286" width="125" height="18" rx="4" fill="#F2F7FF"/>
<rect x="259" y="324" width="125" height="18" rx="4" fill="#F2F7FF"/>
<path d="M426.06 135.333C424.76 135.333 423.686 136.319 423.686 137.562V146.437C423.686 147.679 424.76 148.666 426.06 148.666H431.978C433.278 148.666 434.352 147.679 434.352 146.437C434.352 146.001 434.352 141.198 434.352 139.979C434.352 137.603 432.06 135.333 429.686 135.333C426.876 135.333 426.87 135.333 426.06 135.333ZM430.352 136.833C431.525 137.144 432.538 138.143 432.852 139.312C432.41 139.319 432.02 139.337 431.686 139.333C430.707 139.321 430.343 139.13 430.332 137.999C430.33 137.883 430.346 137.353 430.352 136.833ZM429.019 140.666C429.387 140.666 429.686 140.965 429.686 141.333V143.999H431.019L429.019 145.999L427.019 143.999H428.352V141.333C428.352 140.965 428.651 140.666 429.019 140.666Z" fill="#2D6AF9"/>
<path d="M426.06 174.333C424.76 174.333 423.686 175.319 423.686 176.562V185.437C423.686 186.679 424.76 187.666 426.06 187.666H431.978C433.278 187.666 434.352 186.679 434.352 185.437C434.352 185.001 434.352 180.198 434.352 178.979C434.352 176.603 432.06 174.333 429.686 174.333C426.876 174.333 426.87 174.333 426.06 174.333ZM430.352 175.833C431.525 176.144 432.538 177.143 432.852 178.312C432.41 178.319 432.02 178.337 431.686 178.333C430.707 178.321 430.343 178.13 430.332 176.999C430.33 176.883 430.346 176.353 430.352 175.833ZM429.019 179.666C429.387 179.666 429.686 179.965 429.686 180.333V182.999H431.019L429.019 184.999L427.019 182.999H428.352V180.333C428.352 179.965 428.651 179.666 429.019 179.666Z" fill="#2D6AF9"/>
<path d="M426.06 212.333C424.76 212.333 423.686 213.319 423.686 214.562V223.437C423.686 224.679 424.76 225.666 426.06 225.666H431.978C433.278 225.666 434.352 224.679 434.352 223.437C434.352 223.001 434.352 218.198 434.352 216.979C434.352 214.603 432.06 212.333 429.686 212.333C426.876 212.333 426.87 212.333 426.06 212.333ZM430.352 213.833C431.525 214.144 432.538 215.143 432.852 216.312C432.41 216.319 432.02 216.337 431.686 216.333C430.707 216.321 430.343 216.13 430.332 214.999C430.33 214.883 430.346 214.353 430.352 213.833ZM429.019 217.666C429.387 217.666 429.686 217.965 429.686 218.333V220.999H431.019L429.019 222.999L427.019 220.999H428.352V218.333C428.352 217.965 428.651 217.666 429.019 217.666Z" fill="#2D6AF9"/>
<path d="M426.06 250.333C424.76 250.333 423.686 251.319 423.686 252.562V261.437C423.686 262.679 424.76 263.666 426.06 263.666H431.978C433.278 263.666 434.352 262.679 434.352 261.437C434.352 261.001 434.352 256.198 434.352 254.979C434.352 252.603 432.06 250.333 429.686 250.333C426.876 250.333 426.87 250.333 426.06 250.333ZM430.352 251.833C431.525 252.144 432.538 253.143 432.852 254.312C432.41 254.319 432.02 254.337 431.686 254.333C430.707 254.321 430.343 254.13 430.332 252.999C430.33 252.883 430.346 252.353 430.352 251.833ZM429.019 255.666C429.387 255.666 429.686 255.965 429.686 256.333V258.999H431.019L429.019 260.999L427.019 258.999H428.352V256.333C428.352 255.965 428.651 255.666 429.019 255.666Z" fill="#2D6AF9"/>
<path d="M426.06 288.333C424.76 288.333 423.686 289.319 423.686 290.562V299.437C423.686 300.679 424.76 301.666 426.06 301.666H431.978C433.278 301.666 434.352 300.679 434.352 299.437C434.352 299.001 434.352 294.198 434.352 292.979C434.352 290.603 432.06 288.333 429.686 288.333C426.876 288.333 426.87 288.333 426.06 288.333ZM430.352 289.833C431.525 290.144 432.538 291.143 432.852 292.312C432.41 292.319 432.02 292.337 431.686 292.333C430.707 292.321 430.343 292.13 430.332 290.999C430.33 290.883 430.346 290.353 430.352 289.833ZM429.019 293.666C429.387 293.666 429.686 293.965 429.686 294.333V296.999H431.019L429.019 298.999L427.019 296.999H428.352V294.333C428.352 293.965 428.651 293.666 429.019 293.666Z" fill="#2D6AF9"/>
<path d="M426.06 326.333C424.76 326.333 423.686 327.319 423.686 328.562V337.437C423.686 338.679 424.76 339.666 426.06 339.666H431.978C433.278 339.666 434.352 338.679 434.352 337.437C434.352 337.001 434.352 332.198 434.352 330.979C434.352 328.603 432.06 326.333 429.686 326.333C426.876 326.333 426.87 326.333 426.06 326.333ZM430.352 327.833C431.525 328.144 432.538 329.143 432.852 330.312C432.41 330.319 432.02 330.337 431.686 330.333C430.707 330.321 430.343 330.13 430.332 328.999C430.33 328.883 430.346 328.353 430.352 327.833ZM429.019 331.666C429.387 331.666 429.686 331.965 429.686 332.333V334.999H431.019L429.019 336.999L427.019 334.999H428.352V332.333C428.352 331.965 428.651 331.666 429.019 331.666Z" fill="#2D6AF9"/>
<path d="M524 142C524 146.971 519.971 151 515 151C510.029 151 506 146.971 506 142C506 137.029 510.029 133 515 133C519.971 133 524 137.029 524 142ZM507.869 142C507.869 145.939 511.061 149.131 515 149.131C518.939 149.131 522.131 145.939 522.131 142C522.131 138.061 518.939 134.869 515 134.869C511.061 134.869 507.869 138.061 507.869 142Z" fill="#D9D9D9"/>
<path d="M515 133C516.614 133 518.198 133.434 519.587 134.257C520.976 135.079 522.117 136.26 522.893 137.676C523.668 139.091 524.049 140.689 523.995 142.302C523.941 143.915 523.454 145.484 522.585 146.844L521.005 145.835C521.693 144.758 522.078 143.516 522.121 142.239C522.164 140.962 521.863 139.697 521.249 138.576C520.635 137.456 519.731 136.521 518.631 135.87C517.532 135.218 516.278 134.875 515 134.875V133Z" fill="#FD5439"/>
<path d="M524 181C524 185.971 519.971 190 515 190C510.029 190 506 185.971 506 181C506 176.029 510.029 172 515 172C519.971 172 524 176.029 524 181ZM507.869 181C507.869 184.939 511.061 188.131 515 188.131C518.939 188.131 522.131 184.939 522.131 181C522.131 177.061 518.939 173.869 515 173.869C511.061 173.869 507.869 177.061 507.869 181Z" fill="#D9D9D9"/>
<path d="M515 172C516.614 172 518.198 172.434 519.587 173.257C520.976 174.079 522.117 175.26 522.893 176.676C523.668 178.091 524.049 179.689 523.995 181.302C523.941 182.915 523.454 184.484 522.585 185.844L521.005 184.835C521.693 183.758 522.078 182.516 522.121 181.239C522.164 179.962 521.863 178.697 521.249 177.576C520.635 176.456 519.731 175.521 518.631 174.87C517.532 174.218 516.278 173.875 515 173.875V172Z" fill="#FD5439"/>
<path d="M524 219C524 223.971 519.971 228 515 228C510.029 228 506 223.971 506 219C506 214.029 510.029 210 515 210C519.971 210 524 214.029 524 219ZM507.869 219C507.869 222.939 511.061 226.131 515 226.131C518.939 226.131 522.131 222.939 522.131 219C522.131 215.061 518.939 211.869 515 211.869C511.061 211.869 507.869 215.061 507.869 219Z" fill="#D9D9D9"/>
<path d="M515 210C516.614 210 518.198 210.434 519.587 211.257C520.976 212.079 522.117 213.26 522.893 214.676C523.668 216.091 524.049 217.689 523.995 219.302C523.941 220.915 523.454 222.484 522.585 223.844L521.005 222.835C521.693 221.758 522.078 220.516 522.121 219.239C522.164 217.962 521.863 216.697 521.249 215.576C520.635 214.456 519.731 213.521 518.631 212.87C517.532 212.218 516.278 211.875 515 211.875V210Z" fill="#FD5439"/>
<path d="M524 257C524 261.971 519.971 266 515 266C510.029 266 506 261.971 506 257C506 252.029 510.029 248 515 248C519.971 248 524 252.029 524 257ZM507.869 257C507.869 260.939 511.061 264.131 515 264.131C518.939 264.131 522.131 260.939 522.131 257C522.131 253.061 518.939 249.869 515 249.869C511.061 249.869 507.869 253.061 507.869 257Z" fill="#D9D9D9"/>
<path d="M515 248C516.614 248 518.198 248.434 519.587 249.257C520.976 250.079 522.117 251.26 522.893 252.676C523.668 254.091 524.049 255.689 523.995 257.302C523.941 258.915 523.454 260.484 522.585 261.844L521.005 260.835C521.693 259.758 522.078 258.516 522.121 257.239C522.164 255.962 521.863 254.697 521.249 253.576C520.635 252.456 519.731 251.521 518.631 250.87C517.532 250.218 516.278 249.875 515 249.875V248Z" fill="#FD5439"/>
<path d="M524 295C524 299.971 519.971 304 515 304C510.029 304 506 299.971 506 295C506 290.029 510.029 286 515 286C519.971 286 524 290.029 524 295ZM507.869 295C507.869 298.939 511.061 302.131 515 302.131C518.939 302.131 522.131 298.939 522.131 295C522.131 291.061 518.939 287.869 515 287.869C511.061 287.869 507.869 291.061 507.869 295Z" fill="#D9D9D9"/>
<path d="M515 286C516.614 286 518.198 286.434 519.587 287.257C520.976 288.079 522.117 289.26 522.893 290.676C523.668 292.091 524.049 293.689 523.995 295.302C523.941 296.915 523.454 298.484 522.585 299.844L521.005 298.835C521.693 297.758 522.078 296.516 522.121 295.239C522.164 293.962 521.863 292.697 521.249 291.576C520.635 290.456 519.731 289.521 518.631 288.87C517.532 288.218 516.278 287.875 515 287.875V286Z" fill="#FD5439"/>
<path d="M524 333C524 337.971 519.971 342 515 342C510.029 342 506 337.971 506 333C506 328.029 510.029 324 515 324C519.971 324 524 328.029 524 333ZM507.869 333C507.869 336.939 511.061 340.131 515 340.131C518.939 340.131 522.131 336.939 522.131 333C522.131 329.061 518.939 325.869 515 325.869C511.061 325.869 507.869 329.061 507.869 333Z" fill="#D9D9D9"/>
<path d="M515 324C516.614 324 518.198 324.434 519.587 325.257C520.976 326.079 522.117 327.26 522.893 328.676C523.668 330.091 524.049 331.689 523.995 333.302C523.941 334.915 523.454 336.484 522.585 337.844L521.005 336.835C521.693 335.758 522.078 334.516 522.121 333.239C522.164 331.962 521.863 330.697 521.249 329.576C520.635 328.456 519.731 327.521 518.631 326.87C517.532 326.218 516.278 325.875 515 325.875V324Z" fill="#FD5439"/>
<line x1="46" y1="121.5" x2="587" y2="121.5" stroke="#E7E7E7"/>
<line x1="45" y1="160.75" x2="586" y2="160.75" stroke="#E7E7E7" stroke-width="0.5"/>
<line x1="45" y1="199.75" x2="586" y2="199.75" stroke="#E7E7E7" stroke-width="0.5"/>
<line x1="45" y1="238.75" x2="586" y2="238.75" stroke="#E7E7E7" stroke-width="0.5"/>
<line x1="45" y1="277.75" x2="586" y2="277.75" stroke="#E7E7E7" stroke-width="0.5"/>
<line x1="45" y1="316.75" x2="586" y2="316.75" stroke="#E7E7E7" stroke-width="0.5"/>
<path d="M45.9802 71.2413V64.0413H47.0402V71.2413H45.9802ZM50.7502 71.2413V64.0413H51.8102V71.2413H50.7502ZM46.5002 67.0513H51.2202V67.9313H46.5002V67.0513ZM55.4047 71.3413C54.8847 71.3413 54.428 71.228 54.0347 71.0013C53.6414 70.768 53.3347 70.4513 53.1147 70.0513C52.8947 69.6447 52.7847 69.1847 52.7847 68.6713C52.7847 68.1513 52.8947 67.6947 53.1147 67.3013C53.3414 66.908 53.648 66.6013 54.0347 66.3813C54.428 66.1547 54.8847 66.0413 55.4047 66.0413C55.9314 66.0413 56.3914 66.1547 56.7847 66.3813C57.178 66.6013 57.4814 66.908 57.6947 67.3013C57.9147 67.6947 58.0247 68.1513 58.0247 68.6713C58.0247 69.1847 57.9147 69.6447 57.6947 70.0513C57.4814 70.4513 57.178 70.768 56.7847 71.0013C56.3914 71.228 55.9314 71.3413 55.4047 71.3413ZM55.4047 70.4913C55.718 70.4913 55.988 70.4147 56.2147 70.2613C56.448 70.108 56.6314 69.8947 56.7647 69.6213C56.898 69.348 56.9647 69.028 56.9647 68.6613C56.9647 68.1147 56.818 67.6847 56.5247 67.3713C56.238 67.0513 55.8647 66.8913 55.4047 66.8913C54.9514 66.8913 54.578 67.0513 54.2847 67.3713C53.998 67.6913 53.8547 68.1213 53.8547 68.6613C53.8547 69.028 53.918 69.348 54.0447 69.6213C54.178 69.8947 54.3614 70.108 54.5947 70.2613C54.8347 70.4147 55.1047 70.4913 55.4047 70.4913ZM58.9929 71.2413V66.1413H59.9829V67.3413H60.0329V71.2413H58.9929ZM62.4329 71.2413V67.9113C62.4329 67.5647 62.3529 67.3113 62.1929 67.1513C62.0329 66.9913 61.8029 66.9113 61.5029 66.9113C61.2229 66.9113 60.9696 66.978 60.7429 67.1113C60.5229 67.238 60.3496 67.418 60.2229 67.6513C60.0962 67.878 60.0329 68.148 60.0329 68.4613L59.9029 67.2713C60.0696 66.8913 60.3196 66.5913 60.6529 66.3713C60.9929 66.1513 61.3729 66.0413 61.7929 66.0413C62.2996 66.0413 62.7029 66.188 63.0029 66.4813C63.3096 66.7747 63.4629 67.1613 63.4629 67.6413V71.2413H62.4329ZM65.8729 71.2413V67.9113C65.8729 67.5647 65.7896 67.3113 65.6229 67.1513C65.4629 66.9913 65.2329 66.9113 64.9329 66.9113C64.6596 66.9113 64.4096 66.978 64.1829 67.1113C63.9629 67.238 63.7862 67.418 63.6529 67.6513C63.5262 67.878 63.4629 68.148 63.4629 68.4613L63.2529 67.2713C63.4262 66.8913 63.6862 66.5913 64.0329 66.3713C64.3862 66.1513 64.7796 66.0413 65.2129 66.0413C65.7262 66.0413 66.1362 66.1913 66.4429 66.4913C66.7496 66.7847 66.9029 67.178 66.9029 67.6713V71.2413H65.8729ZM70.3995 71.3413C69.8862 71.3413 69.4329 71.228 69.0395 71.0013C68.6529 70.7747 68.3495 70.4613 68.1295 70.0613C67.9095 69.6613 67.7995 69.2013 67.7995 68.6813C67.7995 68.1547 67.9062 67.6947 68.1195 67.3013C68.3395 66.9013 68.6462 66.5913 69.0395 66.3713C69.4329 66.1513 69.8829 66.0413 70.3895 66.0413C70.8829 66.0413 71.3095 66.148 71.6695 66.3613C72.0362 66.568 72.3162 66.858 72.5095 67.2313C72.7095 67.6047 72.8095 68.048 72.8095 68.5613C72.8095 68.6413 72.8062 68.718 72.7995 68.7913C72.7995 68.858 72.7929 68.928 72.7795 69.0013H68.4995V68.2213H72.0495L71.7895 68.5313C71.7895 67.9847 71.6662 67.568 71.4195 67.2813C71.1729 66.9947 70.8295 66.8513 70.3895 66.8513C69.9162 66.8513 69.5395 67.0147 69.2595 67.3413C68.9862 67.6613 68.8495 68.108 68.8495 68.6813C68.8495 69.2613 68.9862 69.7147 69.2595 70.0413C69.5395 70.368 69.9262 70.5313 70.4195 70.5313C70.7195 70.5313 70.9795 70.4713 71.1995 70.3513C71.4195 70.2247 71.5829 70.0413 71.6895 69.8013H72.6695C72.5029 70.2813 72.2195 70.658 71.8195 70.9313C71.4262 71.2047 70.9529 71.3413 70.3995 71.3413ZM75.396 71.9113L77.966 63.6713H78.866L76.296 71.9113H75.396ZM85.042 71.3413C84.542 71.3413 84.0787 71.2513 83.652 71.0713C83.2254 70.8847 82.8554 70.628 82.542 70.3013C82.2354 69.968 81.9954 69.5747 81.822 69.1213C81.6487 68.668 81.562 68.1713 81.562 67.6313C81.562 67.0913 81.6454 66.598 81.812 66.1513C81.9854 65.698 82.2254 65.308 82.532 64.9813C82.8454 64.648 83.2154 64.3913 83.642 64.2113C84.0687 64.0313 84.532 63.9413 85.032 63.9413C85.592 63.9413 86.0954 64.0547 86.542 64.2813C86.9887 64.5013 87.352 64.8147 87.632 65.2213C87.9187 65.628 88.0954 66.1013 88.162 66.6413H87.122C87.0354 66.0747 86.8054 65.6347 86.432 65.3213C86.0654 65.0013 85.602 64.8413 85.042 64.8413C84.5687 64.8413 84.1487 64.958 83.782 65.1913C83.422 65.418 83.142 65.7413 82.942 66.1613C82.742 66.5747 82.642 67.0647 82.642 67.6313C82.642 68.1913 82.742 68.6847 82.942 69.1113C83.1487 69.5313 83.432 69.858 83.792 70.0913C84.152 70.3247 84.5687 70.4413 85.042 70.4413C85.602 70.4413 86.0687 70.2847 86.442 69.9713C86.822 69.6513 87.052 69.208 87.132 68.6413H88.182C88.1087 69.188 87.9287 69.6647 87.642 70.0713C87.3554 70.4713 86.9887 70.7847 86.542 71.0113C86.102 71.2313 85.602 71.3413 85.042 71.3413ZM92.2072 71.2413C92.1739 71.1147 92.1505 70.9747 92.1372 70.8213C92.1305 70.668 92.1272 70.4813 92.1272 70.2613H92.0772V67.8313C92.0772 67.5047 91.9939 67.2613 91.8272 67.1013C91.6672 66.9347 91.4105 66.8513 91.0572 66.8513C90.7172 66.8513 90.4439 66.918 90.2372 67.0513C90.0372 67.1847 89.9205 67.3747 89.8872 67.6213H88.8972C88.9439 67.1413 89.1605 66.758 89.5472 66.4713C89.9339 66.1847 90.4505 66.0413 91.0972 66.0413C91.7639 66.0413 92.2639 66.198 92.5972 66.5113C92.9305 66.818 93.0972 67.2713 93.0972 67.8713V70.2613C93.0972 70.4147 93.1072 70.5713 93.1272 70.7313C93.1472 70.8913 93.1772 71.0613 93.2172 71.2413H92.2072ZM90.4472 71.3413C89.9272 71.3413 89.5139 71.2147 89.2072 70.9613C88.9005 70.7013 88.7472 70.3513 88.7472 69.9113C88.7472 69.458 88.9072 69.1013 89.2272 68.8413C89.5539 68.5747 90.0205 68.3947 90.6272 68.3013L92.3072 68.0313V68.7613L90.7872 69.0013C90.4472 69.0547 90.1905 69.1447 90.0172 69.2713C89.8505 69.398 89.7672 69.5813 89.7672 69.8213C89.7672 70.0547 89.8439 70.2313 89.9972 70.3513C90.1572 70.4647 90.3872 70.5213 90.6872 70.5213C91.0872 70.5213 91.4172 70.4247 91.6772 70.2313C91.9439 70.038 92.0772 69.7947 92.0772 69.5013L92.2072 70.2413C92.0872 70.5947 91.8739 70.868 91.5672 71.0613C91.2605 71.248 90.8872 71.3413 90.4472 71.3413ZM94.4062 71.2413V66.1413H95.3962V67.3413H95.4462V71.2413H94.4062ZM98.0262 71.2413V67.9613C98.0262 67.608 97.9362 67.3447 97.7562 67.1713C97.5828 66.998 97.3228 66.9113 96.9762 66.9113C96.6762 66.9113 96.4095 66.978 96.1762 67.1113C95.9495 67.2447 95.7695 67.428 95.6362 67.6613C95.5095 67.8947 95.4462 68.1713 95.4462 68.4913L95.3162 67.2713C95.4828 66.8913 95.7395 66.5913 96.0862 66.3713C96.4328 66.1513 96.8362 66.0413 97.2962 66.0413C97.8428 66.0413 98.2728 66.1947 98.5862 66.5013C98.8995 66.808 99.0562 67.2147 99.0562 67.7213V71.2413H98.0262ZM104.051 71.2413V70.0713L104.151 70.1013C104.044 70.4813 103.824 70.7847 103.491 71.0113C103.157 71.2313 102.757 71.3413 102.291 71.3413C101.831 71.3413 101.427 71.2313 101.081 71.0113C100.741 70.7913 100.474 70.4847 100.281 70.0913C100.094 69.698 100.001 69.238 100.001 68.7113C100.001 68.178 100.097 67.7113 100.291 67.3113C100.484 66.9113 100.754 66.6013 101.101 66.3813C101.447 66.1613 101.854 66.0513 102.321 66.0513C102.807 66.0513 103.207 66.168 103.521 66.4013C103.841 66.628 104.051 66.948 104.151 67.3613L104.011 67.3813V64.0413H105.041V71.2413H104.051ZM102.551 70.4713C103.011 70.4713 103.374 70.3147 103.641 70.0013C103.907 69.6813 104.041 69.2413 104.041 68.6813C104.041 68.1347 103.904 67.7047 103.631 67.3913C103.364 67.0713 103.001 66.9113 102.541 66.9113C102.087 66.9113 101.727 67.0713 101.461 67.3913C101.201 67.7047 101.071 68.1447 101.071 68.7113C101.071 69.2647 101.201 69.698 101.461 70.0113C101.727 70.318 102.091 70.4713 102.551 70.4713ZM106.403 71.2413V66.1413H107.443V71.2413H106.403ZM106.353 65.1413V63.9713H107.503V65.1413H106.353ZM112.454 71.2413V70.0713L112.554 70.1013C112.447 70.4813 112.227 70.7847 111.894 71.0113C111.561 71.2313 111.161 71.3413 110.694 71.3413C110.234 71.3413 109.831 71.2313 109.484 71.0113C109.144 70.7913 108.877 70.4847 108.684 70.0913C108.497 69.698 108.404 69.238 108.404 68.7113C108.404 68.178 108.501 67.7113 108.694 67.3113C108.887 66.9113 109.157 66.6013 109.504 66.3813C109.851 66.1613 110.257 66.0513 110.724 66.0513C111.211 66.0513 111.611 66.168 111.924 66.4013C112.244 66.628 112.454 66.948 112.554 67.3613L112.414 67.3813V64.0413H113.444V71.2413H112.454ZM110.954 70.4713C111.414 70.4713 111.777 70.3147 112.044 70.0013C112.311 69.6813 112.444 69.2413 112.444 68.6813C112.444 68.1347 112.307 67.7047 112.034 67.3913C111.767 67.0713 111.404 66.9113 110.944 66.9113C110.491 66.9113 110.131 67.0713 109.864 67.3913C109.604 67.7047 109.474 68.1447 109.474 68.7113C109.474 69.2647 109.604 69.698 109.864 70.0113C110.131 70.318 110.494 70.4713 110.954 70.4713ZM117.967 71.2413C117.934 71.1147 117.91 70.9747 117.897 70.8213C117.89 70.668 117.887 70.4813 117.887 70.2613H117.837V67.8313C117.837 67.5047 117.754 67.2613 117.587 67.1013C117.427 66.9347 117.17 66.8513 116.817 66.8513C116.477 66.8513 116.204 66.918 115.997 67.0513C115.797 67.1847 115.68 67.3747 115.647 67.6213H114.657C114.704 67.1413 114.92 66.758 115.307 66.4713C115.694 66.1847 116.21 66.0413 116.857 66.0413C117.524 66.0413 118.024 66.198 118.357 66.5113C118.69 66.818 118.857 67.2713 118.857 67.8713V70.2613C118.857 70.4147 118.867 70.5713 118.887 70.7313C118.907 70.8913 118.937 71.0613 118.977 71.2413H117.967ZM116.207 71.3413C115.687 71.3413 115.274 71.2147 114.967 70.9613C114.66 70.7013 114.507 70.3513 114.507 69.9113C114.507 69.458 114.667 69.1013 114.987 68.8413C115.314 68.5747 115.78 68.3947 116.387 68.3013L118.067 68.0313V68.7613L116.547 69.0013C116.207 69.0547 115.95 69.1447 115.777 69.2713C115.61 69.398 115.527 69.5813 115.527 69.8213C115.527 70.0547 115.604 70.2313 115.757 70.3513C115.917 70.4647 116.147 70.5213 116.447 70.5213C116.847 70.5213 117.177 70.4247 117.437 70.2313C117.704 70.038 117.837 69.7947 117.837 69.5013L117.967 70.2413C117.847 70.5947 117.634 70.868 117.327 71.0613C117.02 71.248 116.647 71.3413 116.207 71.3413ZM122.131 71.3413C121.538 71.3413 121.101 71.2047 120.821 70.9313C120.548 70.6513 120.411 70.2413 120.411 69.7013V64.9713L121.441 64.5813V69.7113C121.441 69.978 121.511 70.1747 121.651 70.3013C121.791 70.428 122.018 70.4913 122.331 70.4913C122.451 70.4913 122.558 70.4813 122.651 70.4613C122.744 70.4413 122.824 70.418 122.891 70.3913V71.2313C122.818 71.2647 122.714 71.2913 122.581 71.3113C122.448 71.3313 122.298 71.3413 122.131 71.3413ZM119.391 66.9713V66.1413H122.891V66.9713H119.391ZM125.85 71.3413C125.337 71.3413 124.883 71.228 124.49 71.0013C124.103 70.7747 123.8 70.4613 123.58 70.0613C123.36 69.6613 123.25 69.2013 123.25 68.6813C123.25 68.1547 123.357 67.6947 123.57 67.3013C123.79 66.9013 124.097 66.5913 124.49 66.3713C124.883 66.1513 125.333 66.0413 125.84 66.0413C126.333 66.0413 126.76 66.148 127.12 66.3613C127.487 66.568 127.767 66.858 127.96 67.2313C128.16 67.6047 128.26 68.048 128.26 68.5613C128.26 68.6413 128.257 68.718 128.25 68.7913C128.25 68.858 128.243 68.928 128.23 69.0013H123.95V68.2213H127.5L127.24 68.5313C127.24 67.9847 127.117 67.568 126.87 67.2813C126.623 66.9947 126.28 66.8513 125.84 66.8513C125.367 66.8513 124.99 67.0147 124.71 67.3413C124.437 67.6613 124.3 68.108 124.3 68.6813C124.3 69.2613 124.437 69.7147 124.71 70.0413C124.99 70.368 125.377 70.5313 125.87 70.5313C126.17 70.5313 126.43 70.4713 126.65 70.3513C126.87 70.2247 127.033 70.0413 127.14 69.8013H128.12C127.953 70.2813 127.67 70.658 127.27 70.9313C126.877 71.2047 126.403 71.3413 125.85 71.3413ZM131.083 71.3413C130.417 71.3413 129.887 71.1947 129.493 70.9013C129.1 70.608 128.877 70.1947 128.823 69.6613H129.783C129.83 69.9547 129.963 70.1813 130.183 70.3413C130.41 70.4947 130.717 70.5713 131.103 70.5713C131.443 70.5713 131.703 70.5113 131.883 70.3913C132.063 70.2713 132.153 70.1013 132.153 69.8813C132.153 69.7213 132.1 69.588 131.993 69.4813C131.893 69.368 131.693 69.2747 131.393 69.2013L130.573 69.0113C130.06 68.8847 129.677 68.698 129.423 68.4513C129.177 68.198 129.053 67.888 129.053 67.5213C129.053 67.0613 129.223 66.7013 129.563 66.4413C129.91 66.1747 130.383 66.0413 130.983 66.0413C131.577 66.0413 132.053 66.1747 132.413 66.4413C132.78 66.708 132.987 67.0813 133.033 67.5613H132.073C132.033 67.3213 131.917 67.138 131.723 67.0113C131.537 66.878 131.28 66.8113 130.953 66.8113C130.647 66.8113 130.41 66.868 130.243 66.9813C130.083 67.088 130.003 67.238 130.003 67.4313C130.003 67.5913 130.063 67.7247 130.183 67.8313C130.31 67.938 130.517 68.028 130.803 68.1013L131.643 68.3113C132.13 68.4313 132.497 68.628 132.743 68.9013C132.99 69.168 133.113 69.4913 133.113 69.8713C133.113 70.3313 132.933 70.6913 132.573 70.9513C132.22 71.2113 131.723 71.3413 131.083 71.3413Z" fill="#AAAAAA"/>
<path d="M50.474 54.14C49.774 54.14 49.1253 54.014 48.528 53.762C47.9307 53.5007 47.4127 53.1413 46.974 52.684C46.5447 52.2173 46.2087 51.6667 45.966 51.032C45.7233 50.3973 45.602 49.702 45.602 48.946C45.602 48.19 45.7187 47.4993 45.952 46.874C46.1947 46.2393 46.5307 45.6933 46.96 45.236C47.3987 44.7693 47.9167 44.41 48.514 44.158C49.1113 43.906 49.76 43.78 50.46 43.78C51.244 43.78 51.9487 43.9387 52.574 44.256C53.1993 44.564 53.708 45.0027 54.1 45.572C54.5013 46.1413 54.7487 46.804 54.842 47.56H53.386C53.2647 46.7667 52.9427 46.1507 52.42 45.712C51.9067 45.264 51.258 45.04 50.474 45.04C49.8113 45.04 49.2233 45.2033 48.71 45.53C48.206 45.8473 47.814 46.3 47.534 46.888C47.254 47.4667 47.114 48.1527 47.114 48.946C47.114 49.73 47.254 50.4207 47.534 51.018C47.8233 51.606 48.22 52.0633 48.724 52.39C49.228 52.7167 49.8113 52.88 50.474 52.88C51.258 52.88 51.9113 52.6607 52.434 52.222C52.966 51.774 53.288 51.1533 53.4 50.36H54.87C54.7673 51.1253 54.5153 51.7927 54.114 52.362C53.7127 52.922 53.1993 53.3607 52.574 53.678C51.958 53.986 51.258 54.14 50.474 54.14ZM60.5052 54C60.4586 53.8227 60.4259 53.6267 60.4072 53.412C60.3979 53.1973 60.3932 52.936 60.3932 52.628H60.3232V49.226C60.3232 48.7687 60.2066 48.428 59.9732 48.204C59.7492 47.9707 59.3899 47.854 58.8952 47.854C58.4192 47.854 58.0366 47.9473 57.7472 48.134C57.4672 48.3207 57.3039 48.5867 57.2572 48.932H55.8712C55.9366 48.26 56.2399 47.7233 56.7812 47.322C57.3226 46.9207 58.0459 46.72 58.9512 46.72C59.8846 46.72 60.5846 46.9393 61.0512 47.378C61.5179 47.8073 61.7512 48.442 61.7512 49.282V52.628C61.7512 52.8427 61.7652 53.062 61.7932 53.286C61.8212 53.51 61.8632 53.748 61.9192 54H60.5052ZM58.0412 54.14C57.3132 54.14 56.7346 53.9627 56.3052 53.608C55.8759 53.244 55.6612 52.754 55.6612 52.138C55.6612 51.5033 55.8852 51.004 56.3332 50.64C56.7906 50.2667 57.4439 50.0147 58.2932 49.884L60.6452 49.506V50.528L58.5172 50.864C58.0412 50.9387 57.6819 51.0647 57.4392 51.242C57.2059 51.4193 57.0892 51.676 57.0892 52.012C57.0892 52.3387 57.1966 52.586 57.4112 52.754C57.6352 52.9127 57.9572 52.992 58.3772 52.992C58.9372 52.992 59.3992 52.8567 59.7632 52.586C60.1366 52.3153 60.3232 51.9747 60.3232 51.564L60.5052 52.6C60.3372 53.0947 60.0386 53.4773 59.6092 53.748C59.1799 54.0093 58.6572 54.14 58.0412 54.14ZM63.5838 54V46.86H64.9698V48.54H65.0398V54H63.5838ZM68.6518 54V49.408C68.6518 48.9133 68.5258 48.5447 68.2738 48.302C68.0311 48.0593 67.6671 47.938 67.1818 47.938C66.7618 47.938 66.3885 48.0313 66.0618 48.218C65.7445 48.4047 65.4925 48.6613 65.3058 48.988C65.1285 49.3147 65.0398 49.702 65.0398 50.15L64.8578 48.442C65.0911 47.91 65.4505 47.49 65.9358 47.182C66.4211 46.874 66.9858 46.72 67.6298 46.72C68.3951 46.72 68.9971 46.9347 69.4358 47.364C69.8745 47.7933 70.0938 48.3627 70.0938 49.072V54H68.6518ZM77.086 54V52.362L77.226 52.404C77.0767 52.936 76.7687 53.3607 76.302 53.678C75.8354 53.986 75.2754 54.14 74.622 54.14C73.978 54.14 73.4134 53.986 72.928 53.678C72.452 53.37 72.0787 52.9407 71.808 52.39C71.5467 51.8393 71.416 51.1953 71.416 50.458C71.416 49.7113 71.5514 49.058 71.822 48.498C72.0927 47.938 72.4707 47.504 72.956 47.196C73.4414 46.888 74.0107 46.734 74.664 46.734C75.3454 46.734 75.9054 46.8973 76.344 47.224C76.792 47.5413 77.086 47.9893 77.226 48.568L77.03 48.596V43.92H78.472V54H77.086ZM74.986 52.922C75.63 52.922 76.1387 52.7027 76.512 52.264C76.8854 51.816 77.072 51.2 77.072 50.416C77.072 49.6507 76.8807 49.0487 76.498 48.61C76.1247 48.162 75.616 47.938 74.972 47.938C74.3374 47.938 73.8334 48.162 73.46 48.61C73.096 49.0487 72.914 49.6647 72.914 50.458C72.914 51.2327 73.096 51.8393 73.46 52.278C73.8334 52.7073 74.342 52.922 74.986 52.922ZM80.38 54V46.86H81.836V54H80.38ZM80.31 45.46V43.822H81.92V45.46H80.31ZM88.851 54V52.362L88.991 52.404C88.8416 52.936 88.5336 53.3607 88.067 53.678C87.6003 53.986 87.0403 54.14 86.387 54.14C85.743 54.14 85.1783 53.986 84.693 53.678C84.217 53.37 83.8436 52.9407 83.573 52.39C83.3116 51.8393 83.181 51.1953 83.181 50.458C83.181 49.7113 83.3163 49.058 83.587 48.498C83.8576 47.938 84.2356 47.504 84.721 47.196C85.2063 46.888 85.7756 46.734 86.429 46.734C87.1103 46.734 87.6703 46.8973 88.109 47.224C88.557 47.5413 88.851 47.9893 88.991 48.568L88.795 48.596V43.92H90.237V54H88.851ZM86.751 52.922C87.395 52.922 87.9036 52.7027 88.277 52.264C88.6503 51.816 88.837 51.2 88.837 50.416C88.837 49.6507 88.6456 49.0487 88.263 48.61C87.8896 48.162 87.381 47.938 86.737 47.938C86.1023 47.938 85.5983 48.162 85.225 48.61C84.861 49.0487 84.679 49.6647 84.679 50.458C84.679 51.2327 84.861 51.8393 85.225 52.278C85.5983 52.7073 86.107 52.922 86.751 52.922ZM96.5689 54C96.5222 53.8227 96.4896 53.6267 96.4709 53.412C96.4616 53.1973 96.4569 52.936 96.4569 52.628H96.3869V49.226C96.3869 48.7687 96.2702 48.428 96.0369 48.204C95.8129 47.9707 95.4536 47.854 94.9589 47.854C94.4829 47.854 94.1002 47.9473 93.8109 48.134C93.5309 48.3207 93.3676 48.5867 93.3209 48.932H91.9349C92.0002 48.26 92.3036 47.7233 92.8449 47.322C93.3862 46.9207 94.1096 46.72 95.0149 46.72C95.9482 46.72 96.6482 46.9393 97.1149 47.378C97.5816 47.8073 97.8149 48.442 97.8149 49.282V52.628C97.8149 52.8427 97.8289 53.062 97.8569 53.286C97.8849 53.51 97.9269 53.748 97.9829 54H96.5689ZM94.1049 54.14C93.3769 54.14 92.7982 53.9627 92.3689 53.608C91.9396 53.244 91.7249 52.754 91.7249 52.138C91.7249 51.5033 91.9489 51.004 92.3969 50.64C92.8542 50.2667 93.5076 50.0147 94.3569 49.884L96.7089 49.506V50.528L94.5809 50.864C94.1049 50.9387 93.7456 51.0647 93.5029 51.242C93.2696 51.4193 93.1529 51.676 93.1529 52.012C93.1529 52.3387 93.2602 52.586 93.4749 52.754C93.6989 52.9127 94.0209 52.992 94.4409 52.992C95.0009 52.992 95.4629 52.8567 95.8269 52.586C96.2002 52.3153 96.3869 51.9747 96.3869 51.564L96.5689 52.6C96.4009 53.0947 96.1022 53.4773 95.6729 53.748C95.2436 54.0093 94.7209 54.14 94.1049 54.14ZM102.398 54.14C101.568 54.14 100.956 53.9487 100.564 53.566C100.182 53.174 99.9904 52.6 99.9904 51.844V45.222L101.432 44.676V51.858C101.432 52.2313 101.53 52.5067 101.726 52.684C101.922 52.8613 102.24 52.95 102.678 52.95C102.846 52.95 102.996 52.936 103.126 52.908C103.257 52.88 103.369 52.8473 103.462 52.81V53.986C103.36 54.0327 103.215 54.07 103.028 54.098C102.842 54.126 102.632 54.14 102.398 54.14ZM98.5624 48.022V46.86H103.462V48.022H98.5624ZM107.605 54.14C106.886 54.14 106.252 53.9813 105.701 53.664C105.16 53.3467 104.735 52.908 104.427 52.348C104.119 51.788 103.965 51.144 103.965 50.416C103.965 49.6787 104.114 49.0347 104.413 48.484C104.721 47.924 105.15 47.49 105.701 47.182C106.252 46.874 106.882 46.72 107.591 46.72C108.282 46.72 108.879 46.8693 109.383 47.168C109.896 47.4573 110.288 47.8633 110.559 48.386C110.839 48.9087 110.979 49.5293 110.979 50.248C110.979 50.36 110.974 50.4673 110.965 50.57C110.965 50.6633 110.956 50.7613 110.937 50.864H104.945V49.772H109.915L109.551 50.206C109.551 49.4407 109.378 48.8573 109.033 48.456C108.688 48.0547 108.207 47.854 107.591 47.854C106.928 47.854 106.401 48.0827 106.009 48.54C105.626 48.988 105.435 49.6133 105.435 50.416C105.435 51.228 105.626 51.8627 106.009 52.32C106.401 52.7773 106.942 53.006 107.633 53.006C108.053 53.006 108.417 52.922 108.725 52.754C109.033 52.5767 109.262 52.32 109.411 51.984H110.783C110.55 52.656 110.153 53.1833 109.593 53.566C109.042 53.9487 108.38 54.14 107.605 54.14ZM114.932 54.14C113.998 54.14 113.256 53.9347 112.706 53.524C112.155 53.1133 111.842 52.5347 111.768 51.788H113.112C113.177 52.1987 113.364 52.516 113.672 52.74C113.989 52.9547 114.418 53.062 114.96 53.062C115.436 53.062 115.8 52.978 116.052 52.81C116.304 52.642 116.43 52.404 116.43 52.096C116.43 51.872 116.355 51.6853 116.206 51.536C116.066 51.3773 115.786 51.2467 115.366 51.144L114.218 50.878C113.499 50.7007 112.962 50.4393 112.608 50.094C112.262 49.7393 112.09 49.3053 112.09 48.792C112.09 48.148 112.328 47.644 112.804 47.28C113.289 46.9067 113.952 46.72 114.792 46.72C115.622 46.72 116.29 46.9067 116.794 47.28C117.307 47.6533 117.596 48.176 117.662 48.848H116.318C116.262 48.512 116.098 48.2553 115.828 48.078C115.566 47.8913 115.207 47.798 114.75 47.798C114.32 47.798 113.989 47.8773 113.756 48.036C113.532 48.1853 113.42 48.3953 113.42 48.666C113.42 48.89 113.504 49.0767 113.672 49.226C113.849 49.3753 114.138 49.5013 114.54 49.604L115.716 49.898C116.397 50.066 116.91 50.3413 117.256 50.724C117.601 51.0973 117.774 51.55 117.774 52.082C117.774 52.726 117.522 53.23 117.018 53.594C116.523 53.958 115.828 54.14 114.932 54.14Z" fill="black"/>
<rect x="323" y="41" width="248" height="31" rx="8" fill="#F2F7FF"/>
<rect x="327" y="45" width="240" height="23" rx="4" fill="white"/>
<path d="M342.667 61.75V60.5833C342.667 59.9645 342.421 59.371 341.984 58.9334C341.546 58.4958 340.953 58.25 340.334 58.25H335.667C335.048 58.25 334.455 58.4958 334.017 58.9334C333.58 59.371 333.334 59.9645 333.334 60.5833V61.75" fill="#D3D3D3"/>
<path d="M337.999 55.9167C339.288 55.9167 340.333 54.872 340.333 53.5833C340.333 52.2947 339.288 51.25 337.999 51.25C336.711 51.25 335.666 52.2947 335.666 53.5833C335.666 54.872 336.711 55.9167 337.999 55.9167Z" fill="#D3D3D3"/>
<path d="M356.3 60.59C355.46 60.59 354.79 60.3833 354.29 59.97C353.797 59.5567 353.507 58.9667 353.42 58.2H354.22C354.293 58.7533 354.503 59.17 354.85 59.45C355.197 59.73 355.677 59.87 356.29 59.87C356.81 59.87 357.2 59.7733 357.46 59.58C357.727 59.38 357.86 59.09 357.86 58.71C357.86 58.3833 357.77 58.1233 357.59 57.93C357.41 57.7367 357.13 57.5767 356.75 57.45L355.54 57.03C354.927 56.8167 354.473 56.56 354.18 56.26C353.887 55.9533 353.74 55.5667 353.74 55.1C353.74 54.7133 353.837 54.38 354.03 54.1C354.223 53.8133 354.497 53.59 354.85 53.43C355.203 53.27 355.613 53.19 356.08 53.19C356.8 53.19 357.377 53.38 357.81 53.76C358.243 54.1333 358.493 54.6667 358.56 55.36H357.76C357.673 54.86 357.493 54.4933 357.22 54.26C356.953 54.0267 356.567 53.91 356.06 53.91C355.58 53.91 355.207 54.0067 354.94 54.2C354.673 54.3933 354.54 54.6667 354.54 55.02C354.54 55.32 354.633 55.56 354.82 55.74C355.007 55.92 355.297 56.0767 355.69 56.21L356.98 56.66C357.54 56.8533 357.96 57.1167 358.24 57.45C358.52 57.7767 358.66 58.1933 358.66 58.7C358.66 59.3 358.453 59.7667 358.04 60.1C357.633 60.4267 357.053 60.59 356.3 60.59ZM361.854 60.6C361.368 60.6 360.938 60.4867 360.564 60.26C360.191 60.0267 359.898 59.71 359.684 59.31C359.471 58.91 359.364 58.45 359.364 57.93C359.364 57.41 359.468 56.9533 359.674 56.56C359.888 56.16 360.184 55.85 360.564 55.63C360.944 55.41 361.381 55.3 361.874 55.3C362.348 55.3 362.758 55.4033 363.104 55.61C363.458 55.8167 363.728 56.1067 363.914 56.48C364.108 56.8533 364.204 57.2933 364.204 57.8C364.204 57.8667 364.201 57.93 364.194 57.99C364.194 58.05 364.188 58.1167 364.174 58.19H359.964V57.52H363.684L363.424 57.89C363.424 57.2767 363.288 56.8067 363.014 56.48C362.748 56.1467 362.368 55.98 361.874 55.98C361.368 55.98 360.958 56.1567 360.644 56.51C360.338 56.8567 360.184 57.3267 360.184 57.92C360.184 58.5267 360.338 59.0133 360.644 59.38C360.958 59.74 361.374 59.92 361.894 59.92C362.221 59.92 362.508 59.85 362.754 59.71C363.001 59.5633 363.181 59.3567 363.294 59.09H364.054C363.888 59.5567 363.608 59.9267 363.214 60.2C362.828 60.4667 362.374 60.6 361.854 60.6ZM368.41 60.5C368.383 60.3867 368.363 60.2567 368.35 60.11C368.343 59.9633 368.34 59.7767 368.34 59.55H368.29V57.11C368.29 56.7233 368.2 56.44 368.02 56.26C367.846 56.0733 367.563 55.98 367.17 55.98C366.783 55.98 366.473 56.06 366.24 56.22C366.013 56.3733 365.886 56.5933 365.86 56.88H365.09C365.123 56.3867 365.33 56 365.71 55.72C366.09 55.44 366.586 55.3 367.2 55.3C367.833 55.3 368.303 55.45 368.61 55.75C368.916 56.05 369.07 56.5 369.07 57.1V59.55C369.07 59.6967 369.08 59.85 369.1 60.01C369.12 60.1633 369.146 60.3267 369.18 60.5H368.41ZM366.66 60.6C366.133 60.6 365.713 60.4733 365.4 60.22C365.093 59.96 364.94 59.6067 364.94 59.16C364.94 58.7133 365.093 58.3667 365.4 58.12C365.706 57.8733 366.153 57.7 366.74 57.6L368.52 57.3V57.96L366.86 58.22C366.486 58.28 366.203 58.38 366.01 58.52C365.816 58.66 365.72 58.8633 365.72 59.13C365.72 59.39 365.806 59.5867 365.98 59.72C366.16 59.8533 366.423 59.92 366.77 59.92C367.216 59.92 367.58 59.82 367.86 59.62C368.146 59.4133 368.29 59.1467 368.29 58.82L368.42 59.53C368.313 59.87 368.103 60.1333 367.79 60.32C367.483 60.5067 367.106 60.6 366.66 60.6ZM370.512 60.5V55.4H371.262V56.7H371.312V60.5H370.512ZM371.312 57.84L371.182 56.63C371.302 56.1967 371.515 55.8667 371.822 55.64C372.128 55.4133 372.482 55.3 372.882 55.3C373.048 55.3 373.162 55.3133 373.222 55.34V56.11C373.188 56.0967 373.142 56.09 373.082 56.09C373.022 56.0833 372.948 56.08 372.862 56.08C372.355 56.08 371.968 56.2333 371.702 56.54C371.442 56.84 371.312 57.2733 371.312 57.84ZM376.006 60.6C375.539 60.6 375.123 60.4867 374.756 60.26C374.396 60.0267 374.109 59.71 373.896 59.31C373.689 58.9033 373.586 58.4433 373.586 57.93C373.586 57.4167 373.689 56.9633 373.896 56.57C374.109 56.1767 374.396 55.8667 374.756 55.64C375.123 55.4133 375.536 55.3 375.996 55.3C376.376 55.3 376.716 55.3733 377.016 55.52C377.323 55.6667 377.573 55.8767 377.766 56.15C377.966 56.4167 378.093 56.73 378.146 57.09H377.406C377.339 56.7633 377.186 56.4967 376.946 56.29C376.706 56.0833 376.396 55.98 376.016 55.98C375.689 55.98 375.406 56.06 375.166 56.22C374.926 56.38 374.739 56.6067 374.606 56.9C374.473 57.1933 374.406 57.5367 374.406 57.93C374.406 58.3233 374.473 58.67 374.606 58.97C374.739 59.27 374.926 59.5033 375.166 59.67C375.413 59.8367 375.699 59.92 376.026 59.92C376.393 59.92 376.699 59.82 376.946 59.62C377.193 59.4133 377.349 59.1467 377.416 58.82H378.156C378.096 59.1733 377.963 59.4867 377.756 59.76C377.556 60.0267 377.306 60.2333 377.006 60.38C376.706 60.5267 376.373 60.6 376.006 60.6ZM379.218 60.5V53.3H380.018V60.5H379.218ZM382.868 60.5V57.16C382.868 56.7733 382.771 56.4833 382.578 56.29C382.385 56.0967 382.098 56 381.718 56C381.385 56 381.088 56.0733 380.828 56.22C380.575 56.3667 380.375 56.57 380.228 56.83C380.088 57.09 380.018 57.3933 380.018 57.74L379.888 56.53C380.061 56.15 380.325 55.85 380.678 55.63C381.038 55.41 381.445 55.3 381.898 55.3C382.431 55.3 382.858 55.4533 383.178 55.76C383.505 56.06 383.668 56.4567 383.668 56.95V60.5H382.868ZM389.526 60.59C389.046 60.59 388.643 60.4733 388.316 60.24C387.99 60.0067 387.766 59.6767 387.646 59.25L387.756 59.23V60.5H387.006V53.3H387.806V56.59L387.696 56.56C387.823 56.1667 388.053 55.86 388.386 55.64C388.726 55.4133 389.13 55.3 389.596 55.3C390.05 55.3 390.443 55.41 390.776 55.63C391.116 55.85 391.38 56.1567 391.566 56.55C391.753 56.9433 391.846 57.4033 391.846 57.93C391.846 58.4633 391.75 58.93 391.556 59.33C391.363 59.73 391.093 60.04 390.746 60.26C390.4 60.48 389.993 60.59 389.526 60.59ZM389.406 59.89C389.913 59.89 390.31 59.7167 390.596 59.37C390.883 59.0167 391.026 58.5367 391.026 57.93C391.026 57.33 390.883 56.86 390.596 56.52C390.31 56.1733 389.913 56 389.406 56C388.9 56 388.5 56.1767 388.206 56.53C387.913 56.8767 387.766 57.3533 387.766 57.96C387.766 58.5533 387.913 59.0233 388.206 59.37C388.5 59.7167 388.9 59.89 389.406 59.89ZM393.264 62.55L394.404 59.9L394.584 59.62L396.254 55.4H397.074L394.114 62.55H393.264ZM394.494 60.55L392.204 55.4H393.084L395.054 60.01L394.494 60.55ZM399.861 60.5V55.4H400.611V56.6H400.661V60.5H399.861ZM403.511 60.5V57.16C403.511 56.7733 403.414 56.4833 403.221 56.29C403.027 56.0967 402.741 56 402.361 56C402.027 56 401.731 56.0733 401.471 56.22C401.217 56.3667 401.017 56.57 400.871 56.83C400.731 57.09 400.661 57.3933 400.661 57.74L400.531 56.53C400.704 56.15 400.967 55.85 401.321 55.63C401.681 55.41 402.087 55.3 402.541 55.3C403.074 55.3 403.501 55.4533 403.821 55.76C404.147 56.06 404.311 56.4567 404.311 56.95V60.5H403.511ZM408.848 60.5C408.821 60.3867 408.801 60.2567 408.788 60.11C408.781 59.9633 408.778 59.7767 408.778 59.55H408.728V57.11C408.728 56.7233 408.638 56.44 408.458 56.26C408.284 56.0733 408.001 55.98 407.608 55.98C407.221 55.98 406.911 56.06 406.678 56.22C406.451 56.3733 406.324 56.5933 406.298 56.88H405.528C405.561 56.3867 405.768 56 406.148 55.72C406.528 55.44 407.024 55.3 407.638 55.3C408.271 55.3 408.741 55.45 409.048 55.75C409.354 56.05 409.508 56.5 409.508 57.1V59.55C409.508 59.6967 409.518 59.85 409.538 60.01C409.558 60.1633 409.584 60.3267 409.618 60.5H408.848ZM407.098 60.6C406.571 60.6 406.151 60.4733 405.838 60.22C405.531 59.96 405.378 59.6067 405.378 59.16C405.378 58.7133 405.531 58.3667 405.838 58.12C406.144 57.8733 406.591 57.7 407.178 57.6L408.958 57.3V57.96L407.298 58.22C406.924 58.28 406.641 58.38 406.448 58.52C406.254 58.66 406.158 58.8633 406.158 59.13C406.158 59.39 406.244 59.5867 406.418 59.72C406.598 59.8533 406.861 59.92 407.208 59.92C407.654 59.92 408.018 59.82 408.298 59.62C408.584 59.4133 408.728 59.1467 408.728 58.82L408.858 59.53C408.751 59.87 408.541 60.1333 408.228 60.32C407.921 60.5067 407.544 60.6 407.098 60.6ZM410.95 60.5V55.4H411.7V56.6H411.75V60.5H410.95ZM414.39 60.5V57.12C414.39 56.7333 414.303 56.45 414.13 56.27C413.956 56.09 413.706 56 413.38 56C413.073 56 412.796 56.0733 412.55 56.22C412.303 56.3667 412.106 56.57 411.96 56.83C411.82 57.09 411.75 57.3933 411.75 57.74L411.62 56.53C411.793 56.15 412.053 55.85 412.4 55.63C412.746 55.41 413.123 55.3 413.53 55.3C414.023 55.3 414.423 55.4467 414.73 55.74C415.036 56.0267 415.19 56.4167 415.19 56.91V60.5H414.39ZM417.83 60.5V57.12C417.83 56.7333 417.743 56.45 417.57 56.27C417.396 56.09 417.146 56 416.82 56C416.513 56 416.236 56.0733 415.99 56.22C415.743 56.3667 415.546 56.57 415.4 56.83C415.26 57.09 415.19 57.3933 415.19 57.74L414.99 56.53C415.163 56.15 415.43 55.85 415.79 55.63C416.15 55.41 416.536 55.3 416.95 55.3C417.443 55.3 417.846 55.4467 418.16 55.74C418.473 56.0267 418.63 56.4167 418.63 56.91V60.5H417.83ZM422.158 60.6C421.672 60.6 421.242 60.4867 420.868 60.26C420.495 60.0267 420.202 59.71 419.988 59.31C419.775 58.91 419.668 58.45 419.668 57.93C419.668 57.41 419.772 56.9533 419.978 56.56C420.192 56.16 420.488 55.85 420.868 55.63C421.248 55.41 421.685 55.3 422.178 55.3C422.652 55.3 423.062 55.4033 423.408 55.61C423.762 55.8167 424.032 56.1067 424.218 56.48C424.412 56.8533 424.508 57.2933 424.508 57.8C424.508 57.8667 424.505 57.93 424.498 57.99C424.498 58.05 424.492 58.1167 424.478 58.19H420.268V57.52H423.988L423.728 57.89C423.728 57.2767 423.592 56.8067 423.318 56.48C423.052 56.1467 422.672 55.98 422.178 55.98C421.672 55.98 421.262 56.1567 420.948 56.51C420.642 56.8567 420.488 57.3267 420.488 57.92C420.488 58.5267 420.642 59.0133 420.948 59.38C421.262 59.74 421.678 59.92 422.198 59.92C422.525 59.92 422.812 59.85 423.058 59.71C423.305 59.5633 423.485 59.3567 423.598 59.09H424.358C424.192 59.5567 423.912 59.9267 423.518 60.2C423.132 60.4667 422.678 60.6 422.158 60.6Z" fill="#C1C1C1"/>
</g>
<defs>
<filter id="filter1_d_1012_473" x="0.9" y="0.9" width="609.2" height="398.2" filterUnits="userSpaceOnUse" color-interpolation-filters="sRGB">
<feFlood flood-opacity="0" result="BackgroundImageFix"/>
<feColorMatrix in="SourceAlpha" type="matrix" values="0 0 0 0 0 0 0 0 0 0 0 0 0 0 0 0 0 0 127 0" result="hardAlpha"/>
<feOffset dy="2"/>
<feGaussianBlur stdDeviation="11.55"/>
<feComposite in2="hardAlpha" operator="out"/>
<feColorMatrix type="matrix" values="0 0 0 0 0 0 0 0 0 0.16896 0 0 0 0 0.349572 0 0 0 0.15 0"/>
<feBlend mode="normal" in2="BackgroundImageFix" result="effect1_dropShadow_1012_473"/>
<feBlend mode="normal" in="SourceGraphic" in2="effect1_dropShadow_1012_473" result="shape"/>
</filter>
<radialGradient id="paint0_radial_1012_473" cx="0" cy="0" r="1" gradientUnits="userSpaceOnUse" gradientTransform="translate(1 2) rotate(32.8307) scale(721.191 657.096)">
<stop stop-color="#FAFAFA"/>
<stop offset="1" stop-color="#F7F7F7" stop-opacity="0"/>
</radialGradient>
<linearGradient id="paint1_linear_1012_473" x1="-56.2251" y1="71.4539" x2="379.085" y2="867.712" gradientUnits="userSpaceOnUse">
<stop stop-color="white"/>
<stop offset="0.296875" stop-color="white" stop-opacity="0.22"/>
<stop offset="0.520833" stop-color="white" stop-opacity="0.0846512"/>
<stop offset="1" stop-color="#1E1E1E"/>
</linearGradient>
</defs>
</svg>
