<svg width="161" height="90" viewBox="0 0 161 90" fill="none" xmlns="http://www.w3.org/2000/svg">
<path d="M110.189 43.1078L125.689 21.7961L110.371 0.726562H119.483L130.26 15.56L141.067 0.726562H150.179L134.861 21.7961L150.361 43.1078H141.188L130.26 28.0927L119.362 43.1078H110.189Z" fill="white"/>
<path d="M96.441 43.6521C94.8668 43.5512 93.3431 43.2384 91.8699 42.7137C90.4168 42.1688 89.1252 41.4322 87.995 40.5038C86.8649 39.5755 85.997 38.4655 85.3916 37.1739L91.6277 34.5099C91.8699 34.9135 92.2634 35.3474 92.8083 35.8116C93.3532 36.2556 93.999 36.629 94.7457 36.9317C95.5126 37.2344 96.3502 37.3858 97.2583 37.3858C98.0252 37.3858 98.7518 37.2849 99.438 37.083C100.144 36.861 100.709 36.5281 101.133 36.0841C101.577 35.6401 101.799 35.0649 101.799 34.3585C101.799 33.6118 101.537 33.0366 101.012 32.633C100.508 32.2092 99.8618 31.8964 99.0747 31.6946C98.3078 31.4726 97.5611 31.2708 96.8345 31.0891C94.9173 30.7057 93.1312 30.1103 91.4763 29.3031C89.8416 28.4958 88.5197 27.4565 87.5107 26.185C86.5218 24.8934 86.0273 23.3394 86.0273 21.5231C86.0273 19.5251 86.552 17.7996 87.6015 16.3465C88.6711 14.8934 90.0535 13.7734 91.7488 12.9863C93.4642 12.1992 95.3108 11.8057 97.2886 11.8057C99.6902 11.8057 101.89 12.3102 103.888 13.3193C105.906 14.3082 107.5 15.7108 108.671 17.5271L102.828 20.9782C102.546 20.4938 102.152 20.0498 101.648 19.6462C101.143 19.2224 100.568 18.8793 99.9223 18.6169C99.2765 18.3344 98.6004 18.1729 97.8941 18.1326C96.9859 18.0922 96.1585 18.1729 95.4117 18.3748C94.665 18.5766 94.0596 18.9197 93.5954 19.404C93.1514 19.8884 92.9294 20.5342 92.9294 21.3414C92.9294 22.1083 93.2321 22.6835 93.8376 23.067C94.443 23.4302 95.1696 23.7128 96.0172 23.9146C96.885 24.1164 97.7124 24.3384 98.4995 24.5806C100.275 25.1658 101.94 25.8823 103.494 26.7299C105.069 27.5775 106.33 28.6169 107.278 29.848C108.227 31.079 108.681 32.5523 108.641 34.2677C108.641 36.2253 108.055 37.9408 106.885 39.414C105.714 40.8671 104.201 41.9771 102.344 42.744C100.508 43.5109 98.5399 43.8136 96.441 43.6521Z" fill="white"/>
<path d="M67.0068 43.1072L66.9766 12.8349H74.363L74.3933 15.5292C75.4225 14.4394 76.6536 13.5816 78.0865 12.956C79.5194 12.3102 81.0633 11.9873 82.7182 11.9873C83.8281 11.9873 84.9381 12.1488 86.0481 12.4717L83.142 19.9186C82.3751 19.6159 81.6082 19.4646 80.8413 19.4646C79.6506 19.4646 78.5608 19.7572 77.5719 20.3425C76.6032 20.9075 75.8262 21.6845 75.2409 22.6734C74.6758 23.6421 74.3933 24.7219 74.3933 25.9126V43.1072H67.0068Z" fill="white"/>
<path d="M48.9438 43.8943C46.1587 43.8943 43.6158 43.1779 41.3152 41.745C39.0346 40.3121 37.2082 38.3948 35.8359 35.9932C34.4837 33.5715 33.8076 30.8974 33.8076 27.9711C33.8076 25.7511 34.2012 23.6825 34.9882 21.7653C35.7753 19.8278 36.855 18.1326 38.2274 16.6795C39.6199 15.2063 41.2344 14.0559 43.0709 13.2285C44.9075 12.401 46.8651 11.9873 48.9438 11.9873C51.7288 11.9873 54.2616 12.7037 56.5421 14.1366C58.8428 15.5695 60.6692 17.4969 62.0214 19.9186C63.3938 22.3404 64.0799 25.0246 64.0799 27.9711C64.0799 30.1709 63.6864 32.2294 62.8993 34.1466C62.1122 36.0639 61.0224 37.7591 59.6299 39.2324C58.2576 40.6855 56.6531 41.8257 54.8166 42.6532C53.0003 43.4806 51.0427 43.8943 48.9438 43.8943ZM48.9438 36.5079C50.417 36.5079 51.7389 36.1143 52.9094 35.3273C54.08 34.5402 54.9982 33.5008 55.6642 32.2092C56.3504 30.9176 56.6935 29.5049 56.6935 27.9711C56.6935 26.3969 56.3403 24.964 55.634 23.6724C54.9478 22.3606 54.0093 21.3213 52.8186 20.5544C51.6481 19.7673 50.3565 19.3737 48.9438 19.3737C47.4907 19.3737 46.1789 19.7673 45.0084 20.5544C43.8378 21.3414 42.9095 22.3909 42.2233 23.7027C41.5371 25.0145 41.1941 26.4373 41.1941 27.9711C41.1941 29.5654 41.5472 31.0084 42.2536 32.3C42.9599 33.5916 43.8984 34.6209 45.0689 35.3878C46.2596 36.1345 47.5512 36.5079 48.9438 36.5079Z" fill="white"/>
<path d="M15.8627 43.8948C13.5216 43.8948 11.2714 43.5316 9.11197 42.805C6.97272 42.0583 5.09584 40.9988 3.48132 39.6265C1.86679 38.2339 0.706354 36.5689 0 34.6315L6.93236 32.0886C7.2149 32.8959 7.79007 33.6325 8.65788 34.2985C9.52569 34.9645 10.5852 35.4993 11.8365 35.903C13.0877 36.3066 14.4298 36.5084 15.8627 36.5084C17.3359 36.5084 18.7083 36.2864 19.9797 35.8424C21.2713 35.3782 22.3107 34.7425 23.0978 33.9353C23.8849 33.1078 24.2784 32.1492 24.2784 31.0594C24.2784 29.9494 23.8647 29.0412 23.0372 28.3349C22.2098 27.6083 21.1503 27.0332 19.8586 26.6094C18.567 26.1855 17.235 25.8626 15.8627 25.6406C12.8556 25.1765 10.1614 24.46 7.77998 23.4913C5.39856 22.5226 3.51159 21.1805 2.11906 19.4651C0.746717 17.7497 0.0605449 15.5297 0.0605449 12.8052C0.0605449 10.2421 0.797171 8.00198 2.27042 6.08473C3.74368 4.16749 5.6811 2.67405 8.08271 1.60443C10.4843 0.53481 13.0776 0 15.8627 0C18.1836 0 20.4237 0.363268 22.5831 1.0898C24.7426 1.81634 26.6295 2.87587 28.2441 4.26839C29.8788 5.66092 31.0493 7.33599 31.7557 9.2936L24.793 11.8062C24.5105 10.9989 23.9353 10.2623 23.0675 9.59632C22.1997 8.93033 21.1402 8.40561 19.8889 8.02216C18.6377 7.61853 17.2956 7.41672 15.8627 7.41672C14.4298 7.39653 13.0675 7.62862 11.7759 8.11298C10.5045 8.57716 9.46514 9.21287 8.65788 10.0201C7.85062 10.8274 7.44699 11.7557 7.44699 12.8052C7.44699 14.1573 7.82035 15.1765 8.56707 15.8627C9.33396 16.5489 10.3531 17.0534 11.6246 17.3763C12.896 17.679 14.3087 17.9616 15.8627 18.2239C18.6881 18.6679 21.3016 19.4146 23.7032 20.4641C26.1048 21.5135 28.0322 22.9161 29.4852 24.6719C30.9383 26.4075 31.6648 28.5367 31.6648 31.0594C31.6648 33.6224 30.9383 35.8727 29.4852 37.8101C28.0322 39.7274 26.1048 41.2208 23.7032 42.2904C21.3016 43.36 18.6881 43.8948 15.8627 43.8948Z" fill="white"/>
<path d="M9.138 86.162C7.506 86.162 6.204 85.79 5.232 85.046C4.272 84.29 3.708 83.228 3.54 81.86H5.79C5.898 82.652 6.252 83.27 6.852 83.714C7.452 84.146 8.238 84.362 9.21 84.362C10.014 84.362 10.626 84.218 11.046 83.93C11.478 83.63 11.694 83.216 11.694 82.688C11.694 82.22 11.562 81.842 11.298 81.554C11.034 81.266 10.59 81.032 9.966 80.852L7.626 80.15C6.438 79.79 5.562 79.316 4.998 78.728C4.446 78.14 4.17 77.402 4.17 76.514C4.17 75.77 4.362 75.122 4.746 74.57C5.13 74.018 5.67 73.592 6.366 73.292C7.074 72.992 7.896 72.842 8.832 72.842C10.272 72.842 11.418 73.196 12.27 73.904C13.134 74.6 13.626 75.548 13.746 76.748H11.496C11.364 76.028 11.064 75.5 10.596 75.164C10.128 74.816 9.498 74.642 8.706 74.642C8.01 74.642 7.458 74.78 7.05 75.056C6.642 75.332 6.438 75.71 6.438 76.19C6.438 76.586 6.558 76.922 6.798 77.198C7.05 77.474 7.512 77.714 8.184 77.918L10.56 78.638C11.748 78.986 12.612 79.46 13.152 80.06C13.692 80.66 13.962 81.422 13.962 82.346C13.962 83.57 13.536 84.512 12.684 85.172C11.844 85.832 10.662 86.162 9.138 86.162ZM19.7362 86.18C18.6082 86.18 17.7742 85.916 17.2342 85.388C16.7062 84.848 16.4422 84.044 16.4422 82.976V74.732L18.7282 73.886V83.03C18.7282 83.474 18.8482 83.804 19.0882 84.02C19.3282 84.236 19.7062 84.344 20.2222 84.344C20.4262 84.344 20.6062 84.332 20.7622 84.308C20.9302 84.272 21.0862 84.23 21.2302 84.182V85.946C21.0862 86.018 20.8822 86.072 20.6182 86.108C20.3542 86.156 20.0602 86.18 19.7362 86.18ZM14.6782 78.602V76.82H21.2302V78.602H14.6782ZM28.5277 86C28.4677 85.76 28.4197 85.496 28.3837 85.208C28.3597 84.92 28.3477 84.572 28.3477 84.164H28.2757V79.808C28.2757 79.328 28.1377 78.968 27.8617 78.728C27.5977 78.476 27.1897 78.35 26.6377 78.35C26.0977 78.35 25.6657 78.452 25.3417 78.656C25.0297 78.848 24.8377 79.13 24.7657 79.502H22.5877C22.6837 78.65 23.0917 77.96 23.8117 77.432C24.5317 76.904 25.4977 76.64 26.7097 76.64C27.9697 76.64 28.9237 76.928 29.5717 77.504C30.2197 78.068 30.5437 78.902 30.5437 80.006V84.164C30.5437 84.452 30.5617 84.746 30.5977 85.046C30.6457 85.346 30.7117 85.664 30.7957 86H28.5277ZM25.3417 86.18C24.4177 86.18 23.6797 85.952 23.1277 85.496C22.5877 85.028 22.3177 84.404 22.3177 83.624C22.3177 82.784 22.6237 82.118 23.2357 81.626C23.8477 81.134 24.7117 80.804 25.8277 80.636L28.6897 80.204V81.644L26.2057 82.022C25.6657 82.106 25.2577 82.256 24.9817 82.472C24.7177 82.688 24.5857 82.988 24.5857 83.372C24.5857 83.72 24.7117 83.99 24.9637 84.182C25.2157 84.362 25.5637 84.452 26.0077 84.452C26.6557 84.452 27.1957 84.29 27.6277 83.966C28.0597 83.642 28.2757 83.246 28.2757 82.778L28.5277 84.164C28.2877 84.824 27.8917 85.328 27.3397 85.676C26.7997 86.012 26.1337 86.18 25.3417 86.18ZM32.8408 86V76.82H35.0548V79.034H35.1088V86H32.8408ZM35.1088 81.212L34.8748 79.034C35.0908 78.254 35.4568 77.66 35.9728 77.252C36.4888 76.844 37.1068 76.64 37.8268 76.64C38.0788 76.64 38.2588 76.664 38.3668 76.712V78.854C38.3068 78.83 38.2228 78.818 38.1148 78.818C38.0068 78.806 37.8748 78.8 37.7188 78.8C36.8428 78.8 36.1888 78.992 35.7568 79.376C35.3248 79.76 35.1088 80.372 35.1088 81.212ZM44.205 86.18C43.077 86.18 42.243 85.916 41.703 85.388C41.175 84.848 40.911 84.044 40.911 82.976V74.732L43.197 73.886V83.03C43.197 83.474 43.317 83.804 43.557 84.02C43.797 84.236 44.175 84.344 44.691 84.344C44.895 84.344 45.075 84.332 45.231 84.308C45.399 84.272 45.555 84.23 45.699 84.182V85.946C45.555 86.018 45.351 86.072 45.087 86.108C44.823 86.156 44.529 86.18 44.205 86.18ZM39.147 78.602V76.82H45.699V78.602H39.147ZM50.8759 86V73.04H53.1439V86H50.8759ZM57.3199 86V80.204C57.3199 79.64 57.1759 79.214 56.8879 78.926C56.5999 78.638 56.1799 78.494 55.6279 78.494C55.1479 78.494 54.7159 78.602 54.3319 78.818C53.9599 79.034 53.6659 79.334 53.4499 79.718C53.2459 80.102 53.1439 80.546 53.1439 81.05L52.9099 78.854C53.2219 78.182 53.6779 77.648 54.2779 77.252C54.8779 76.844 55.5979 76.64 56.4379 76.64C57.4339 76.64 58.2079 76.922 58.7599 77.486C59.3239 78.05 59.6059 78.8 59.6059 79.736V86H57.3199ZM61.8271 86V76.82H64.0951V86H61.8271ZM61.7191 75.308V72.806H64.1851V75.308H61.7191ZM66.5029 86V76.82H68.7169V79.034H68.7709V86H66.5029ZM68.7709 81.212L68.5369 79.034C68.7529 78.254 69.1189 77.66 69.6349 77.252C70.1509 76.844 70.7689 76.64 71.4889 76.64C71.7409 76.64 71.9209 76.664 72.0289 76.712V78.854C71.9689 78.83 71.8849 78.818 71.7769 78.818C71.6689 78.806 71.5369 78.8 71.3809 78.8C70.5049 78.8 69.8509 78.992 69.4189 79.376C68.9869 79.76 68.7709 80.372 68.7709 81.212ZM73.3759 86V76.82H75.6439V86H73.3759ZM73.2679 75.308V72.806H75.7339V75.308H73.2679ZM78.0517 86V76.82H80.2657V78.98H80.3197V86H78.0517ZM84.4957 86V80.204C84.4957 79.64 84.3517 79.214 84.0637 78.926C83.7757 78.638 83.3557 78.494 82.8037 78.494C82.3237 78.494 81.8917 78.602 81.5077 78.818C81.1357 79.034 80.8417 79.334 80.6257 79.718C80.4217 80.102 80.3197 80.546 80.3197 81.05L80.0857 78.854C80.3977 78.182 80.8537 77.648 81.4537 77.252C82.0537 76.844 82.7737 76.64 83.6137 76.64C84.6097 76.64 85.3837 76.922 85.9357 77.486C86.4997 78.05 86.7817 78.8 86.7817 79.736V86H84.4957ZM93.0876 89.87C91.8756 89.87 90.8796 89.606 90.0996 89.078C89.3316 88.55 88.8756 87.836 88.7316 86.936H90.8916C90.9996 87.248 91.2336 87.488 91.5936 87.656C91.9656 87.836 92.4456 87.926 93.0336 87.926C93.8856 87.926 94.5156 87.734 94.9236 87.35C95.3316 86.978 95.5356 86.408 95.5356 85.64V83.66L95.6976 83.696C95.5536 84.368 95.1876 84.908 94.5996 85.316C94.0116 85.712 93.2916 85.91 92.4396 85.91C91.6236 85.91 90.9096 85.718 90.2976 85.334C89.6976 84.95 89.2296 84.416 88.8936 83.732C88.5576 83.036 88.3896 82.226 88.3896 81.302C88.3896 80.366 88.5636 79.55 88.9116 78.854C89.2596 78.158 89.7456 77.618 90.3696 77.234C91.0056 76.838 91.7436 76.64 92.5836 76.64C93.4476 76.64 94.1556 76.85 94.7076 77.27C95.2716 77.678 95.6196 78.248 95.7516 78.98L95.6076 78.998V76.82H97.8216V85.622C97.8216 86.93 97.3956 87.962 96.5436 88.718C95.7036 89.486 94.5516 89.87 93.0876 89.87ZM93.1776 84.11C93.9096 84.11 94.4916 83.864 94.9236 83.372C95.3676 82.868 95.5896 82.166 95.5896 81.266C95.5896 80.366 95.3676 79.67 94.9236 79.178C94.4796 78.686 93.8916 78.44 93.1596 78.44C92.4396 78.44 91.8576 78.692 91.4136 79.196C90.9696 79.688 90.7476 80.384 90.7476 81.284C90.7476 82.184 90.9696 82.88 91.4136 83.372C91.8576 83.864 92.4456 84.11 93.1776 84.11ZM105.606 86L102.798 76.82H105.174L106.83 83.714H106.668L108.702 76.82H110.772L112.842 83.714H112.662L114.3 76.82H116.622L113.814 86H111.69L109.62 79.178H109.8L107.73 86H105.606ZM117.972 86V76.82H120.24V86H117.972ZM117.864 75.308V72.806H120.33V75.308H117.864ZM126.664 86.18C125.536 86.18 124.702 85.916 124.162 85.388C123.634 84.848 123.37 84.044 123.37 82.976V74.732L125.656 73.886V83.03C125.656 83.474 125.776 83.804 126.016 84.02C126.256 84.236 126.634 84.344 127.15 84.344C127.354 84.344 127.534 84.332 127.69 84.308C127.858 84.272 128.014 84.23 128.158 84.182V85.946C128.014 86.018 127.81 86.072 127.546 86.108C127.282 86.156 126.988 86.18 126.664 86.18ZM121.606 78.602V76.82H128.158V78.602H121.606ZM129.854 86V73.04H132.122V86H129.854ZM136.298 86V80.204C136.298 79.64 136.154 79.214 135.866 78.926C135.578 78.638 135.158 78.494 134.606 78.494C134.126 78.494 133.694 78.602 133.31 78.818C132.938 79.034 132.644 79.334 132.428 79.718C132.224 80.102 132.122 80.546 132.122 81.05L131.888 78.854C132.2 78.182 132.656 77.648 133.256 77.252C133.856 76.844 134.576 76.64 135.416 76.64C136.412 76.64 137.186 76.922 137.738 77.486C138.302 78.05 138.584 78.8 138.584 79.736V86H136.298ZM143.654 86L148.424 73.04H150.44L145.958 86H143.654ZM153.428 86L148.964 73.04H151.088L155.84 86H153.428ZM146.12 80.906H153.212V82.778H146.12V80.906ZM157.468 86V73.04H159.808V86H157.468Z" fill="white"/>
</svg>
