<svg width="60" height="86" viewBox="0 0 60 86" fill="none" xmlns="http://www.w3.org/2000/svg">
<rect width="60" height="86" rx="12" fill="url(#paint0_linear_953_322)"/>
<rect x="9" y="14" width="12" height="12" rx="4" fill="#434241"/>
<rect x="9" y="37" width="12" height="12" rx="4" fill="#434241"/>
<rect x="9" y="61" width="12" height="12" rx="4" fill="#434241"/>
<path d="M42.9444 24H26.0556C25.4729 24 25 23.3295 25 22.5C25 21.6705 25.4729 21 26.0556 21H42.9444C43.5282 21 44 21.6705 44 22.5C44 23.3295 43.5282 24 42.9444 24Z" fill="#434241"/>
<path d="M42.9444 47H26.0556C25.4729 47 25 46.3295 25 45.5C25 44.6705 25.4729 44 26.0556 44H42.9444C43.5282 44 44 44.6705 44 45.5C44 46.3295 43.5282 47 42.9444 47Z" fill="#434241"/>
<path d="M42.9444 71H26.0556C25.4729 71 25 70.3295 25 69.5C25 68.6705 25.4729 68 26.0556 68H42.9444C43.5282 68 44 68.6705 44 69.5C44 70.3295 43.5282 71 42.9444 71Z" fill="#434241"/>
<path d="M49.96 19H26.04C25.4659 19 25 18.3295 25 17.5C25 16.6705 25.4659 16 26.04 16H49.96C50.5351 16 51 16.6705 51 17.5C51 18.3295 50.5351 19 49.96 19Z" fill="#434241"/>
<path d="M49.96 42H26.04C25.4659 42 25 41.3295 25 40.5C25 39.6705 25.4659 39 26.04 39H49.96C50.5351 39 51 39.6705 51 40.5C51 41.3295 50.5351 42 49.96 42Z" fill="#434241"/>
<path d="M49.96 66H26.04C25.4659 66 25 65.3295 25 64.5C25 63.6705 25.4659 63 26.04 63H49.96C50.5351 63 51 63.6705 51 64.5C51 65.3295 50.5351 66 49.96 66Z" fill="#434241"/>
<defs>
<linearGradient id="paint0_linear_953_322" x1="-30.7421" y1="57.8553" x2="91.4228" y2="20.5469" gradientUnits="userSpaceOnUse">
<stop stop-color="#EB008B"/>
<stop offset="1" stop-color="#F9EC31"/>
</linearGradient>
</defs>
</svg>
