<svg width="134" height="81" viewBox="0 0 134 81" fill="none" xmlns="http://www.w3.org/2000/svg">
<g filter="url(#filter0_d_953_267)">
<path d="M27.37 35.198C25.4633 35.198 23.938 34.7433 22.794 33.834C21.65 32.9247 20.9827 31.6267 20.792 29.94H23.058C23.19 31.04 23.63 31.876 24.378 32.448C25.126 33.02 26.138 33.306 27.414 33.306C28.4847 33.306 29.2913 33.108 29.834 32.712C30.3913 32.316 30.67 31.7513 30.67 31.018C30.67 30.358 30.4867 29.8373 30.12 29.456C29.7533 29.06 29.174 28.7373 28.382 28.488L25.632 27.608C24.224 27.1533 23.19 26.5813 22.53 25.892C21.87 25.2027 21.54 24.33 21.54 23.274C21.54 22.3793 21.76 21.6093 22.2 20.964C22.6547 20.3187 23.2853 19.82 24.092 19.468C24.9133 19.1013 25.8667 18.918 26.952 18.918C28.624 18.918 29.9587 19.3433 30.956 20.194C31.968 21.03 32.5473 22.196 32.694 23.692H30.428C30.252 22.6947 29.8707 21.9687 29.284 21.514C28.6973 21.0447 27.8907 20.81 26.864 20.81C25.896 20.81 25.1407 21.0007 24.598 21.382C24.0553 21.7633 23.784 22.2987 23.784 22.988C23.784 23.5453 23.96 24.0147 24.312 24.396C24.6787 24.7627 25.28 25.078 26.116 25.342L28.998 26.266C30.3327 26.6913 31.3153 27.2707 31.946 28.004C32.5913 28.7373 32.914 29.6613 32.914 30.776C32.914 32.184 32.43 33.2767 31.462 34.054C30.494 34.8167 29.13 35.198 27.37 35.198ZM39.4941 35.22C38.4234 35.22 37.4701 34.9707 36.6341 34.472C35.7981 33.9587 35.1381 33.262 34.6541 32.382C34.1847 31.502 33.9501 30.4973 33.9501 29.368C33.9501 28.2387 34.1847 27.2413 34.6541 26.376C35.1381 25.496 35.7981 24.8067 36.6341 24.308C37.4701 23.8093 38.4161 23.56 39.4721 23.56C40.3667 23.56 41.1661 23.7287 41.8701 24.066C42.5741 24.4033 43.1534 24.8727 43.6081 25.474C44.0627 26.0753 44.3561 26.7867 44.4881 27.608H42.3321C42.1854 26.948 41.8627 26.42 41.3641 26.024C40.8801 25.628 40.2641 25.43 39.5161 25.43C38.8707 25.43 38.3061 25.5913 37.8221 25.914C37.3381 26.2367 36.9641 26.6913 36.7001 27.278C36.4361 27.8647 36.3041 28.5613 36.3041 29.368C36.3041 30.16 36.4361 30.8567 36.7001 31.458C36.9641 32.0593 37.3381 32.5287 37.8221 32.866C38.3061 33.1887 38.8781 33.35 39.5381 33.35C40.2567 33.35 40.8654 33.1593 41.3641 32.778C41.8774 32.382 42.2074 31.854 42.3541 31.194H44.5101C44.3634 32.0007 44.0554 32.7047 43.5861 33.306C43.1314 33.9073 42.5521 34.3767 41.8481 34.714C41.1441 35.0513 40.3594 35.22 39.4941 35.22ZM53.18 35C53.1066 34.7213 53.0553 34.4133 53.026 34.076C53.0113 33.7387 53.004 33.328 53.004 32.844H52.894V27.498C52.894 26.7793 52.7106 26.244 52.344 25.892C51.992 25.5253 51.4273 25.342 50.65 25.342C49.902 25.342 49.3006 25.4887 48.846 25.782C48.406 26.0753 48.1493 26.4933 48.076 27.036H45.898C46.0006 25.98 46.4773 25.1367 47.328 24.506C48.1786 23.8753 49.3153 23.56 50.738 23.56C52.2046 23.56 53.3046 23.9047 54.038 24.594C54.7713 25.2687 55.138 26.266 55.138 27.586V32.844C55.138 33.1813 55.16 33.526 55.204 33.878C55.248 34.23 55.314 34.604 55.402 35H53.18ZM49.308 35.22C48.164 35.22 47.2546 34.9413 46.58 34.384C45.9053 33.812 45.568 33.042 45.568 32.074C45.568 31.0767 45.92 30.292 46.624 29.72C47.3426 29.1333 48.3693 28.7373 49.704 28.532L53.4 27.938V29.544L50.056 30.072C49.308 30.1893 48.7433 30.3873 48.362 30.666C47.9953 30.9447 47.812 31.348 47.812 31.876C47.812 32.3893 47.9806 32.778 48.318 33.042C48.67 33.2913 49.176 33.416 49.836 33.416C50.716 33.416 51.442 33.2033 52.014 32.778C52.6006 32.3527 52.894 31.8173 52.894 31.172L53.18 32.8C52.916 33.5773 52.4466 34.1787 51.772 34.604C51.0973 35.0147 50.276 35.22 49.308 35.22ZM57.7977 35V19.16H60.0857V35H57.7977ZM67.6977 35.22C66.5684 35.22 65.5711 34.9707 64.7057 34.472C63.8551 33.9733 63.1877 33.284 62.7037 32.404C62.2197 31.524 61.9777 30.512 61.9777 29.368C61.9777 28.2093 62.2124 27.1973 62.6817 26.332C63.1657 25.452 63.8404 24.77 64.7057 24.286C65.5711 23.802 66.5611 23.56 67.6757 23.56C68.7611 23.56 69.6997 23.7947 70.4917 24.264C71.2984 24.7187 71.9144 25.3567 72.3397 26.178C72.7797 26.9993 72.9997 27.9747 72.9997 29.104C72.9997 29.28 72.9924 29.4487 72.9777 29.61C72.9777 29.7567 72.9631 29.9107 72.9337 30.072H63.5177V28.356H71.3277L70.7557 29.038C70.7557 27.8353 70.4844 26.9187 69.9417 26.288C69.3991 25.6573 68.6437 25.342 67.6757 25.342C66.6344 25.342 65.8057 25.7013 65.1897 26.42C64.5884 27.124 64.2877 28.1067 64.2877 29.368C64.2877 30.644 64.5884 31.6413 65.1897 32.36C65.8057 33.0787 66.6564 33.438 67.7417 33.438C68.4017 33.438 68.9737 33.306 69.4577 33.042C69.9417 32.7633 70.3011 32.36 70.5357 31.832H72.6917C72.3251 32.888 71.7017 33.7167 70.8217 34.318C69.9564 34.9193 68.9151 35.22 67.6977 35.22ZM74.9221 35V19.16H77.2541V35H74.9221ZM85.4161 35V19.16H87.7481V35H85.4161ZM76.0661 25.782H86.4501V27.718H76.0661V25.782ZM90.5519 35V23.78H92.8399V35H90.5519ZM90.4419 21.58V19.006H92.9719V21.58H90.4419ZM95.6119 35V23.78H97.7899V26.574H97.8999V35H95.6119ZM97.8999 29.148L97.6139 26.486C97.8779 25.5327 98.3326 24.8067 98.9779 24.308C99.6233 23.8093 100.393 23.56 101.288 23.56C101.625 23.56 101.86 23.5893 101.992 23.648V25.804C101.919 25.7747 101.816 25.76 101.684 25.76C101.552 25.7453 101.391 25.738 101.2 25.738C100.1 25.738 99.2713 26.024 98.7139 26.596C98.1713 27.168 97.8999 28.0187 97.8999 29.148ZM108.112 35.22C106.982 35.22 105.985 34.9707 105.12 34.472C104.269 33.9733 103.602 33.284 103.118 32.404C102.634 31.524 102.392 30.512 102.392 29.368C102.392 28.2093 102.626 27.1973 103.096 26.332C103.58 25.452 104.254 24.77 105.12 24.286C105.985 23.802 106.975 23.56 108.09 23.56C109.175 23.56 110.114 23.7947 110.906 24.264C111.712 24.7187 112.328 25.3567 112.754 26.178C113.194 26.9993 113.414 27.9747 113.414 29.104C113.414 29.28 113.406 29.4487 113.392 29.61C113.392 29.7567 113.377 29.9107 113.348 30.072H103.932V28.356H111.742L111.17 29.038C111.17 27.8353 110.898 26.9187 110.356 26.288C109.813 25.6573 109.058 25.342 108.09 25.342C107.048 25.342 106.22 25.7013 105.604 26.42C105.002 27.124 104.702 28.1067 104.702 29.368C104.702 30.644 105.002 31.6413 105.604 32.36C106.22 33.0787 107.07 33.438 108.156 33.438C108.816 33.438 109.388 33.306 109.872 33.042C110.356 32.7633 110.715 32.36 110.95 31.832H113.106C112.739 32.888 112.116 33.7167 111.236 34.318C110.37 34.9193 109.329 35.22 108.112 35.22Z" fill="white"/>
</g>
<g filter="url(#filter1_d_953_267)">
<path d="M23.984 56.108C23.408 56.108 22.924 55.968 22.532 55.688C22.14 55.408 21.872 55.012 21.728 54.5L21.86 54.476V56H20.96V47.36H21.92V51.308L21.788 51.272C21.94 50.8 22.216 50.432 22.616 50.168C23.024 49.896 23.508 49.76 24.068 49.76C24.612 49.76 25.084 49.892 25.484 50.156C25.892 50.42 26.208 50.788 26.432 51.26C26.656 51.732 26.768 52.284 26.768 52.916C26.768 53.556 26.652 54.116 26.42 54.596C26.188 55.076 25.864 55.448 25.448 55.712C25.032 55.976 24.544 56.108 23.984 56.108ZM23.84 55.268C24.448 55.268 24.924 55.06 25.268 54.644C25.612 54.22 25.784 53.644 25.784 52.916C25.784 52.196 25.612 51.632 25.268 51.224C24.924 50.808 24.448 50.6 23.84 50.6C23.232 50.6 22.752 50.812 22.4 51.236C22.048 51.652 21.872 52.224 21.872 52.952C21.872 53.664 22.048 54.228 22.4 54.644C22.752 55.06 23.232 55.268 23.84 55.268ZM28.3496 58.46L29.7176 55.28L29.9336 54.944L31.9376 49.88H32.9216L29.3696 58.46H28.3496ZM29.8256 56.06L27.0776 49.88H28.1336L30.4976 55.412L29.8256 56.06Z" fill="white"/>
</g>
<path d="M64.4814 56.7774L68.347 51.4623L64.5267 46.2075H66.7993L69.4871 49.907L72.1824 46.2075H74.4549L70.6347 51.4623L74.5002 56.7774H72.2126L69.4871 53.0327L66.7691 56.7774H64.4814Z" fill="#5772EB"/>
<path d="M61.0526 56.9132C60.66 56.8881 60.28 56.8101 59.9126 56.6792C59.5502 56.5433 59.228 56.3596 58.9462 56.1281C58.6643 55.8965 58.4479 55.6197 58.2969 55.2976L59.8522 54.6332C59.9126 54.7338 60.0107 54.842 60.1466 54.9578C60.2825 55.0685 60.4436 55.1617 60.6298 55.2372C60.8211 55.3127 61.03 55.3504 61.2565 55.3504C61.4477 55.3504 61.6289 55.3252 61.8001 55.2749C61.9762 55.2195 62.1171 55.1365 62.2228 55.0258C62.3336 54.915 62.3889 54.7716 62.3889 54.5954C62.3889 54.4092 62.3235 54.2657 62.1926 54.1651C62.0668 54.0594 61.9057 53.9814 61.7095 53.931C61.5182 53.8757 61.332 53.8253 61.1508 53.78C60.6726 53.6844 60.2271 53.5359 59.8144 53.3346C59.4067 53.1332 59.077 52.874 58.8254 52.5569C58.5787 52.2348 58.4554 51.8472 58.4554 51.3942C58.4554 50.8959 58.5863 50.4656 58.848 50.1032C59.1148 49.7408 59.4596 49.4614 59.8824 49.2652C60.3102 49.0689 60.7707 48.9707 61.264 48.9707C61.863 48.9707 62.4116 49.0965 62.9099 49.3482C63.4132 49.5948 63.8109 49.9446 64.1028 50.3976L62.6456 51.2583C62.5752 51.1375 62.477 51.0268 62.3512 50.9261C62.2254 50.8204 62.0819 50.7349 61.9208 50.6694C61.7598 50.599 61.5912 50.5587 61.415 50.5486C61.1885 50.5386 60.9821 50.5587 60.7959 50.609C60.6097 50.6594 60.4587 50.7449 60.3429 50.8657C60.2322 50.9865 60.1768 51.1476 60.1768 51.3489C60.1768 51.5402 60.2523 51.6837 60.4033 51.7793C60.5543 51.8699 60.7355 51.9403 60.9469 51.9907C61.1633 52.041 61.3697 52.0964 61.566 52.1568C62.0089 52.3027 62.4242 52.4814 62.8117 52.6928C63.2043 52.9042 63.5189 53.1634 63.7555 53.4705C63.9921 53.7775 64.1053 54.1449 64.0952 54.5728C64.0952 55.061 63.9493 55.4888 63.6573 55.8563C63.3654 56.2187 62.9879 56.4955 62.5248 56.6867C62.0668 56.878 61.5761 56.9535 61.0526 56.9132Z" fill="white"/>
<path d="M53.7117 56.7775L53.7041 49.2275H55.5463L55.5538 49.8995C55.8105 49.6277 56.1176 49.4137 56.4749 49.2577C56.8323 49.0966 57.2173 49.0161 57.6301 49.0161C57.9069 49.0161 58.1837 49.0564 58.4606 49.1369L57.7358 50.9942C57.5445 50.9187 57.3532 50.881 57.162 50.881C56.865 50.881 56.5932 50.9539 56.3466 51.0999C56.105 51.2408 55.9112 51.4346 55.7652 51.6812C55.6243 51.9228 55.5538 52.1921 55.5538 52.4891V56.7775H53.7117Z" fill="white"/>
<path d="M49.2066 56.9738C48.512 56.9738 47.8778 56.7951 47.304 56.4377C46.7353 56.0803 46.2798 55.6022 45.9375 55.0032C45.6003 54.3992 45.4316 53.7323 45.4316 53.0025C45.4316 52.4488 45.5298 51.9329 45.7261 51.4547C45.9224 50.9715 46.1917 50.5488 46.5339 50.1864C46.8812 49.8189 47.2839 49.532 47.7419 49.3257C48.2 49.1193 48.6882 49.0161 49.2066 49.0161C49.9012 49.0161 50.5329 49.1948 51.1017 49.5522C51.6754 49.9095 52.131 50.3902 52.4682 50.9942C52.8105 51.5982 52.9816 52.2676 52.9816 53.0025C52.9816 53.5511 52.8834 54.0645 52.6871 54.5427C52.4908 55.0208 52.219 55.4436 51.8717 55.8111C51.5295 56.1735 51.1293 56.4578 50.6713 56.6642C50.2183 56.8706 49.7301 56.9738 49.2066 56.9738ZM49.2066 55.1316C49.574 55.1316 49.9037 55.0334 50.1957 54.8371C50.4876 54.6408 50.7166 54.3816 50.8827 54.0595C51.0538 53.7373 51.1394 53.385 51.1394 53.0025C51.1394 52.6099 51.0513 52.2525 50.8752 51.9304C50.704 51.6032 50.47 51.344 50.173 51.1527C49.8811 50.9564 49.5589 50.8583 49.2066 50.8583C48.8442 50.8583 48.5171 50.9564 48.2251 51.1527C47.9332 51.349 47.7017 51.6108 47.5305 51.9379C47.3594 52.2651 47.2738 52.62 47.2738 53.0025C47.2738 53.4001 47.3619 53.76 47.5381 54.0821C47.7142 54.4043 47.9483 54.661 48.2402 54.8522C48.5372 55.0385 48.8593 55.1316 49.2066 55.1316Z" fill="white"/>
<path d="M40.9562 56.9738C40.3723 56.9738 39.8111 56.8832 39.2725 56.702C38.739 56.5158 38.2709 56.2515 37.8682 55.9092C37.4656 55.562 37.1762 55.1467 37 54.6635L38.7289 54.0293C38.7994 54.2306 38.9429 54.4144 39.1593 54.5805C39.3757 54.7466 39.64 54.8799 39.952 54.9806C40.2641 55.0813 40.5988 55.1316 40.9562 55.1316C41.3236 55.1316 41.6659 55.0762 41.983 54.9655C42.3051 54.8497 42.5643 54.6912 42.7606 54.4899C42.9569 54.2835 43.0551 54.0444 43.0551 53.7726C43.0551 53.4958 42.9519 53.2693 42.7455 53.0931C42.5391 52.9119 42.2749 52.7685 41.9528 52.6628C41.6306 52.5571 41.2984 52.4765 40.9562 52.4212C40.2062 52.3054 39.5343 52.1267 38.9403 51.8851C38.3464 51.6435 37.8758 51.3088 37.5285 50.881C37.1862 50.4532 37.0151 49.8995 37.0151 49.22C37.0151 48.5808 37.1988 48.0221 37.5662 47.5439C37.9337 47.0657 38.4169 46.6933 39.0158 46.4265C39.6148 46.1597 40.2616 46.0264 40.9562 46.0264C41.535 46.0264 42.0937 46.117 42.6323 46.2982C43.1708 46.4794 43.6414 46.7436 44.0441 47.0909C44.4518 47.4382 44.7437 47.856 44.9199 48.3442L43.1834 48.9708C43.1129 48.7695 42.9695 48.5858 42.7531 48.4197C42.5366 48.2536 42.2724 48.1227 41.9603 48.0271C41.6483 47.9264 41.3135 47.8761 40.9562 47.8761C40.5988 47.8711 40.2591 47.929 39.9369 48.0498C39.6198 48.1655 39.3606 48.3241 39.1593 48.5254C38.958 48.7267 38.8573 48.9583 38.8573 49.22C38.8573 49.5572 38.9504 49.8114 39.1366 49.9825C39.3279 50.1537 39.5821 50.2795 39.8992 50.36C40.2163 50.4355 40.5686 50.506 40.9562 50.5714C41.6608 50.6822 42.3126 50.8684 42.9116 51.1301C43.5106 51.3919 43.9913 51.7417 44.3536 52.1796C44.716 52.6124 44.8972 53.1435 44.8972 53.7726C44.8972 54.4118 44.716 54.9731 44.3536 55.4563C43.9913 55.9344 43.5106 56.3069 42.9116 56.5736C42.3126 56.8404 41.6608 56.9738 40.9562 56.9738Z" fill="white"/>
<defs>
<filter id="filter0_d_953_267" x="0.291992" y="0.417969" width="133.621" height="57.3022" filterUnits="userSpaceOnUse" color-interpolation-filters="sRGB">
<feFlood flood-opacity="0" result="BackgroundImageFix"/>
<feColorMatrix in="SourceAlpha" type="matrix" values="0 0 0 0 0 0 0 0 0 0 0 0 0 0 0 0 0 0 127 0" result="hardAlpha"/>
<feOffset dy="2"/>
<feGaussianBlur stdDeviation="10.25"/>
<feComposite in2="hardAlpha" operator="out"/>
<feColorMatrix type="matrix" values="0 0 0 0 0 0 0 0 0 0 0 0 0 0 0 0 0 0 0.1 0"/>
<feBlend mode="normal" in2="BackgroundImageFix" result="effect1_dropShadow_953_267"/>
<feBlend mode="normal" in="SourceGraphic" in2="effect1_dropShadow_953_267" result="shape"/>
</filter>
<filter id="filter1_d_953_267" x="0.459961" y="28.8599" width="52.9619" height="52.1001" filterUnits="userSpaceOnUse" color-interpolation-filters="sRGB">
<feFlood flood-opacity="0" result="BackgroundImageFix"/>
<feColorMatrix in="SourceAlpha" type="matrix" values="0 0 0 0 0 0 0 0 0 0 0 0 0 0 0 0 0 0 127 0" result="hardAlpha"/>
<feOffset dy="2"/>
<feGaussianBlur stdDeviation="10.25"/>
<feComposite in2="hardAlpha" operator="out"/>
<feColorMatrix type="matrix" values="0 0 0 0 0 0 0 0 0 0 0 0 0 0 0 0 0 0 0.1 0"/>
<feBlend mode="normal" in2="BackgroundImageFix" result="effect1_dropShadow_953_267"/>
<feBlend mode="normal" in="SourceGraphic" in2="effect1_dropShadow_953_267" result="shape"/>
</filter>
</defs>
</svg>
