<svg width="48" height="49" viewBox="0 0 48 49" fill="none" xmlns="http://www.w3.org/2000/svg">
<g clip-path="url(#clip0_953_508)">
<ellipse cx="24" cy="24.0709" rx="24" ry="24.0709" fill="#F2F7FF"/>
<path d="M34.3878 33.0534H26.4078C25.6282 30.4725 25.2383 27.7978 25.2383 25.0293C25.2383 22.2138 25.9492 19.9849 27.3709 18.3425C28.8385 16.6532 30.994 15.8086 33.8375 15.8086V19.7503C31.5444 19.7503 30.3978 21.1815 30.3978 24.0439V25.3812H34.3878V33.0534ZM22.7618 33.0534H14.7818C14.0021 30.4725 13.6123 27.7978 13.6123 25.0293C13.6123 22.2138 14.3232 19.9849 15.7449 18.3425C17.2125 16.6532 19.368 15.8086 22.2114 15.8086V19.7503C19.9183 19.7503 18.7718 21.1815 18.7718 24.0439V25.3812H22.7618V33.0534Z" fill="#030B24"/>
</g>
<defs>
<clipPath id="clip0_953_508">
<rect width="48" height="48.1417" fill="white"/>
</clipPath>
</defs>
</svg>
