<svg width="82" height="82" viewBox="0 0 82 82" fill="none" xmlns="http://www.w3.org/2000/svg">
<path d="M22.8483 70.0979C23.2698 69.9427 23.7347 69.9521 24.1498 70.1241L32.1728 73.4484C32.5881 73.6206 32.9232 73.9428 33.1115 74.3509L36.5837 81.8797H45.2833L48.7616 74.3498C48.9499 73.9421 49.285 73.6202 49.6998 73.4482L57.7228 70.1239C58.1381 69.9516 58.6028 69.9425 59.0247 70.0979L66.8044 72.9639L72.9569 66.8111L70.0912 59.0314C69.936 58.6097 69.9451 58.1448 70.1172 57.7295L73.4415 49.7065C73.6135 49.2917 73.9352 48.9566 74.3431 48.7683L81.873 45.29V36.5897L74.3431 33.1115C73.9354 32.9232 73.6135 32.5881 73.4415 32.1732L70.1172 24.1502C69.9449 23.735 69.9358 23.2701 70.0912 22.8483L72.9569 15.0688L66.8044 8.91611L59.025 11.782C58.603 11.9373 58.1383 11.9281 57.723 11.7561L49.7001 8.43156C49.2852 8.25955 48.9501 7.93786 48.7618 7.52994L45.2836 0H36.5839L33.1117 7.52883C32.9234 7.93697 32.5883 8.25933 32.173 8.43134L24.15 11.7559C23.735 11.9279 23.2703 11.9373 22.8485 11.782L15.0623 8.91588L8.90963 15.0686L11.7755 22.8481C11.9308 23.2694 11.9216 23.7338 11.7501 24.1489L8.43201 32.1719C8.26022 32.5872 7.93809 32.9227 7.52995 33.1112L0 36.5895V45.2898L7.52995 48.768C7.93809 48.9566 8.26022 49.2921 8.43201 49.7074L11.7501 57.7304C11.9219 58.1455 11.9308 58.6099 11.7755 59.0312L8.90963 66.8109L15.0623 72.9636L22.8485 70.0975L22.8483 70.0979ZM59.6797 56.5491C55.0331 62.1337 48.2015 65.3365 40.9365 65.3365C35.1792 65.3365 29.6924 63.322 25.3467 59.7054C25.3333 60.6808 24.5394 61.4676 23.5609 61.4676C22.574 61.4676 21.7738 60.6674 21.7738 59.6804V55.406C21.7738 54.419 22.574 53.6188 23.5609 53.6188H27.8351C28.8221 53.6188 29.6223 54.419 29.6223 55.406C29.6223 56.3657 28.8652 57.1467 27.916 57.1891C31.5788 60.1292 36.1483 61.7622 40.9368 61.7622C47.1366 61.7622 52.967 59.0288 56.9322 54.2631C57.5638 53.5042 58.6906 53.401 59.4492 54.0323C60.2078 54.6636 60.3113 55.7904 59.68 56.5493L59.6797 56.5491ZM43.0123 18.3585C43.1787 17.3859 44.1014 16.732 45.0751 16.8984C50.6805 17.8575 55.8088 20.783 59.5153 25.1356C63.2648 29.5387 65.3298 35.1526 65.3298 40.9432C65.3298 42.3352 65.2108 43.7117 64.9804 45.0651C65.832 44.5875 66.9121 44.8812 67.4018 45.7299C67.8951 46.5848 67.602 47.6777 66.747 48.1711L63.049 50.3052C62.7749 50.4634 62.4666 50.5445 62.1556 50.5445C62.0008 50.5445 61.8451 50.5244 61.6927 50.4835C61.235 50.3606 60.8447 50.0611 60.6077 49.6505L58.4736 45.9524C57.9804 45.0975 58.2735 44.0046 59.1284 43.5111C59.9541 43.0346 61.0011 43.2936 61.516 44.083C61.672 43.0501 61.7553 42.0023 61.7553 40.9432C61.7553 30.7658 54.4867 22.1352 44.4722 20.4216C43.4995 20.2551 42.8456 19.3314 43.0121 18.3587L43.0123 18.3585ZM52.9629 40.9432C52.9629 47.5747 47.568 52.9696 40.9365 52.9696C34.3051 52.9696 28.9101 47.5747 28.9101 40.9432C28.9101 34.3118 34.3051 28.9105 40.9365 28.9105C47.568 28.9105 52.9629 34.3084 52.9629 40.9432ZM22.3542 25.1359C25.0831 21.9297 28.5848 19.5016 32.4795 18.0596C31.6422 17.5601 31.3578 16.4798 31.8468 15.6327C32.3401 14.7775 33.4332 14.4849 34.2881 14.9779L37.9862 17.112C38.8411 17.6052 39.1342 18.6983 38.6409 19.5532L36.5071 23.2513C36.1762 23.8248 35.5753 24.1455 34.9574 24.1455C34.6542 24.1455 34.3473 24.0683 34.0658 23.9061C33.2337 23.4258 32.9361 22.3778 33.3758 21.5338C25.4984 24.5798 20.1175 32.1866 20.1175 40.9432C20.1175 43.4216 20.5469 45.8425 21.3938 48.1387C21.7354 49.0647 21.2615 50.0923 20.3353 50.4339C20.1314 50.509 19.9225 50.5447 19.7172 50.5447C18.9901 50.5447 18.3067 50.0977 18.0402 49.3755C17.0468 46.682 16.543 43.8449 16.543 40.943C16.543 35.1522 18.6067 29.5385 22.3542 25.1359Z" fill="url(#paint0_linear_953_318)"/>
<defs>
<linearGradient id="paint0_linear_953_318" x1="-41.9492" y1="55.0835" x2="110.997" y2="-11.8605" gradientUnits="userSpaceOnUse">
<stop stop-color="#EB008B"/>
<stop offset="1" stop-color="#F9EC31"/>
</linearGradient>
</defs>
</svg>
