<svg width="87" height="97" viewBox="0 0 87 97" fill="none" xmlns="http://www.w3.org/2000/svg">
<g filter="url(#filter0_f_953_295)">
<ellipse cx="43.1115" cy="48.2716" rx="28.0849" ry="22.9294" transform="rotate(-89.5313 43.1115 48.2716)" fill="#70422C"/>
</g>
<path d="M45.4045 23.5825L45.2997 24.7094C45.1625 26.1891 45.0938 26.929 44.7356 27.5495C44.3761 28.1722 43.7696 28.6016 42.5563 29.4586L41.6333 30.1145L42.7619 30.2188C44.2399 30.3566 44.9797 30.4252 45.6003 30.7834C46.223 31.143 46.6524 31.7494 47.5094 32.9627L48.1653 33.8857L48.2701 32.7589C48.4073 31.2792 48.476 30.5393 48.8342 29.9188C49.1937 29.296 49.8002 28.8667 51.0135 28.0097L51.9365 27.3538L50.8079 27.2494C49.3299 27.1117 48.5901 27.0431 47.9695 26.6848C47.3468 26.3253 46.9175 25.7189 46.0604 24.5055L45.4045 23.5825Z" fill="white"/>
<path d="M45.4045 23.5825L45.2997 24.7094C45.1625 26.1891 45.0938 26.929 44.7356 27.5495C44.3761 28.1722 43.7696 28.6016 42.5563 29.4586L41.6333 30.1145L42.7619 30.2188C44.2399 30.3566 44.9797 30.4252 45.6003 30.7834C46.223 31.143 46.6524 31.7494 47.5094 32.9627L48.1653 33.8857L48.2701 32.7589C48.4073 31.2792 48.476 30.5393 48.8342 29.9188C49.1937 29.296 49.8002 28.8667 51.0135 28.0097L51.9365 27.3538L50.8079 27.2494C49.3299 27.1117 48.5901 27.0431 47.9695 26.6848C47.3468 26.3253 46.9175 25.7189 46.0604 24.5055L45.4045 23.5825Z" fill="url(#paint0_linear_953_295)"/>
<path d="M45.4045 23.5825L45.2997 24.7094C45.1625 26.1891 45.0938 26.929 44.7356 27.5495C44.3761 28.1722 43.7696 28.6016 42.5563 29.4586L41.6333 30.1145L42.7619 30.2188C44.2399 30.3566 44.9797 30.4252 45.6003 30.7834C46.223 31.143 46.6524 31.7494 47.5094 32.9627L48.1653 33.8857L48.2701 32.7589C48.4073 31.2792 48.476 30.5393 48.8342 29.9188C49.1937 29.296 49.8002 28.8667 51.0135 28.0097L51.9365 27.3538L50.8079 27.2494C49.3299 27.1117 48.5901 27.0431 47.9695 26.6848C47.3468 26.3253 46.9175 25.7189 46.0604 24.5055L45.4045 23.5825Z" fill="url(#paint1_linear_953_295)"/>
<path d="M45.4045 23.5825L45.2997 24.7094C45.1625 26.1891 45.0938 26.929 44.7356 27.5495C44.3761 28.1722 43.7696 28.6016 42.5563 29.4586L41.6333 30.1145L42.7619 30.2188C44.2399 30.3566 44.9797 30.4252 45.6003 30.7834C46.223 31.143 46.6524 31.7494 47.5094 32.9627L48.1653 33.8857L48.2701 32.7589C48.4073 31.2792 48.476 30.5393 48.8342 29.9188C49.1937 29.296 49.8002 28.8667 51.0135 28.0097L51.9365 27.3538L50.8079 27.2494C49.3299 27.1117 48.5901 27.0431 47.9695 26.6848C47.3468 26.3253 46.9175 25.7189 46.0604 24.5055L45.4045 23.5825Z" fill="url(#paint2_linear_953_295)"/>
<path d="M45.4045 23.5825L45.2997 24.7094C45.1625 26.1891 45.0938 26.929 44.7356 27.5495C44.3761 28.1722 43.7696 28.6016 42.5563 29.4586L41.6333 30.1145L42.7619 30.2188C44.2399 30.3566 44.9797 30.4252 45.6003 30.7834C46.223 31.143 46.6524 31.7494 47.5094 32.9627L48.1653 33.8857L48.2701 32.7589C48.4073 31.2792 48.476 30.5393 48.8342 29.9188C49.1937 29.296 49.8002 28.8667 51.0135 28.0097L51.9365 27.3538L50.8079 27.2494C49.3299 27.1117 48.5901 27.0431 47.9695 26.6848C47.3468 26.3253 46.9175 25.7189 46.0604 24.5055L45.4045 23.5825Z" fill="url(#paint3_linear_953_295)"/>
<path d="M45.4045 23.5825L45.2997 24.7094C45.1625 26.1891 45.0938 26.929 44.7356 27.5495C44.3761 28.1722 43.7696 28.6016 42.5563 29.4586L41.6333 30.1145L42.7619 30.2188C44.2399 30.3566 44.9797 30.4252 45.6003 30.7834C46.223 31.143 46.6524 31.7494 47.5094 32.9627L48.1653 33.8857L48.2701 32.7589C48.4073 31.2792 48.476 30.5393 48.8342 29.9188C49.1937 29.296 49.8002 28.8667 51.0135 28.0097L51.9365 27.3538L50.8079 27.2494C49.3299 27.1117 48.5901 27.0431 47.9695 26.6848C47.3468 26.3253 46.9175 25.7189 46.0604 24.5055L45.4045 23.5825Z" fill="url(#paint4_linear_953_295)"/>
<path d="M36.1765 27.7817L35.9274 30.4599C35.602 33.9716 35.4393 35.7274 34.5858 37.2056C33.7324 38.6838 32.2931 39.7027 29.4146 41.7404L27.2198 43.2951L29.898 43.5442C33.4097 43.8696 35.166 44.0341 36.6437 44.8857C38.1215 45.7374 39.1408 47.1784 41.1785 50.0569L42.7332 52.2518L42.9822 49.5736C43.3077 46.0619 43.4721 44.3056 44.3238 42.8279C45.1755 41.3501 46.6165 40.3308 49.495 38.2931L51.6899 36.7384L49.0117 36.4893C45.5 36.1639 43.7442 36.0012 42.266 35.1477C40.7878 34.2943 39.7689 32.855 37.7312 29.9765L36.1765 27.7817Z" fill="url(#paint5_linear_953_295)"/>
<defs>
<filter id="filter0_f_953_295" x="0.181641" y="0.187012" width="85.8594" height="96.1692" filterUnits="userSpaceOnUse" color-interpolation-filters="sRGB">
<feFlood flood-opacity="0" result="BackgroundImageFix"/>
<feBlend mode="normal" in="SourceGraphic" in2="BackgroundImageFix" result="shape"/>
<feGaussianBlur stdDeviation="10" result="effect1_foregroundBlur_953_295"/>
</filter>
<linearGradient id="paint0_linear_953_295" x1="45.4045" y1="23.5825" x2="44.2561" y2="36.2683" gradientUnits="userSpaceOnUse">
<stop stop-color="white"/>
<stop offset="1" stop-color="#7A59FF"/>
</linearGradient>
<linearGradient id="paint1_linear_953_295" x1="44.4313" y1="17.5783" x2="46.6771" y2="34.2461" gradientUnits="userSpaceOnUse">
<stop stop-color="white"/>
<stop offset="1" stop-color="#030B24"/>
</linearGradient>
<linearGradient id="paint2_linear_953_295" x1="44.4313" y1="17.5783" x2="46.7281" y2="32.301" gradientUnits="userSpaceOnUse">
<stop stop-color="white"/>
<stop offset="1" stop-color="#4F3425"/>
</linearGradient>
<linearGradient id="paint3_linear_953_295" x1="45.3302" y1="23.885" x2="46.7281" y2="32.301" gradientUnits="userSpaceOnUse">
<stop stop-color="white"/>
<stop offset="1" stop-color="#5C3A2A"/>
</linearGradient>
<linearGradient id="paint4_linear_953_295" x1="45.3302" y1="23.885" x2="46.7281" y2="32.301" gradientUnits="userSpaceOnUse">
<stop stop-color="white"/>
<stop offset="1" stop-color="#71432D"/>
</linearGradient>
<linearGradient id="paint5_linear_953_295" x1="36" y1="28.5" x2="39" y2="48.5" gradientUnits="userSpaceOnUse">
<stop stop-color="white"/>
<stop offset="1" stop-color="#71432D"/>
</linearGradient>
</defs>
</svg>
