<svg width="124" height="30" viewBox="0 0 124 30" fill="none" xmlns="http://www.w3.org/2000/svg">
<g clip-path="url(#clip0_953_514)">
<path d="M42.4123 21.8464L37.9443 6.90575H42.5306L44.6019 16.0977H44.7202L47.1761 6.90575H50.786L53.2419 16.1269H53.3602L55.4315 6.90575H60.0178L55.5498 21.8464H51.6145L49.0402 13.5006H48.9219L46.3476 21.8464H42.4123Z" fill="white"/>
<path d="M63.2522 22.0215C62.5273 22.0215 61.8862 21.9047 61.3289 21.6713C60.7766 21.433 60.3426 21.0731 60.027 20.5916C59.7114 20.1101 59.5536 19.4973 59.5536 18.7532C59.5536 18.1404 59.6596 17.6176 59.8717 17.1847C60.0837 16.747 60.3796 16.3896 60.7593 16.1123C61.1391 15.8351 61.5804 15.6236 62.0835 15.4776C62.5914 15.3317 63.1388 15.2369 63.7256 15.1931C64.3618 15.1445 64.8722 15.0861 65.2569 15.018C65.6465 14.9451 65.9276 14.8454 66.1002 14.7189C66.2728 14.5876 66.3591 14.415 66.3591 14.201V14.1718C66.3591 13.88 66.2456 13.6563 66.0188 13.5006C65.7919 13.345 65.501 13.2672 65.1459 13.2672C64.7563 13.2672 64.4382 13.3523 64.1917 13.5225C63.95 13.6879 63.8045 13.9432 63.7552 14.2885H59.9974C60.0467 13.6076 60.2662 12.9802 60.6558 12.4064C61.0503 11.8276 61.6248 11.3656 62.3793 11.0203C63.1339 10.6701 64.0758 10.495 65.2051 10.495C66.0188 10.495 66.7487 10.5898 67.3947 10.7795C68.0407 10.9643 68.5906 11.2245 69.0443 11.5601C69.498 11.8908 69.8432 12.2799 70.0799 12.7273C70.3215 13.1699 70.4424 13.6514 70.4424 14.1718V21.8464H66.6254V20.2706H66.5366C66.3098 20.6889 66.0336 21.0269 65.7081 21.2847C65.3876 21.5424 65.0202 21.7297 64.6059 21.8464C64.1966 21.9631 63.7454 22.0215 63.2522 22.0215ZM64.5837 19.4827C64.8944 19.4827 65.1854 19.4195 65.4566 19.2931C65.7328 19.1666 65.9572 18.9842 66.1298 18.7459C66.3024 18.5076 66.3887 18.2182 66.3887 17.8778V16.944C66.2802 16.9878 66.1643 17.0291 66.041 17.068C65.9226 17.1069 65.7944 17.1434 65.6563 17.1774C65.5232 17.2115 65.3802 17.2431 65.2273 17.2723C65.0793 17.3015 64.924 17.3282 64.7613 17.3525C64.4456 17.4012 64.1867 17.4814 63.9845 17.5933C63.7873 17.7003 63.6393 17.834 63.5407 17.9945C63.447 18.1501 63.4002 18.3252 63.4002 18.5198C63.4002 18.831 63.5111 19.0693 63.733 19.2347C63.955 19.4 64.2385 19.4827 64.5837 19.4827Z" fill="white"/>
<path d="M83.4375 10.6409L79.6205 21.8464H74.8863L71.0693 10.6409H75.3597L77.1942 18.0529H77.3126L79.1471 10.6409H83.4375Z" fill="white"/>
<path d="M89.6974 22.0506C88.4843 22.0506 87.4388 21.8221 86.561 21.3649C85.6881 20.9029 85.015 20.2414 84.5415 19.3806C84.073 18.5149 83.8388 17.479 83.8388 16.2728C83.8388 15.1153 84.0755 14.1037 84.5489 13.238C85.0224 12.3723 85.6906 11.6987 86.5536 11.2172C87.4166 10.7357 88.435 10.495 89.6087 10.495C90.4668 10.495 91.2435 10.6263 91.9388 10.8889C92.6341 11.1516 93.2284 11.5334 93.7215 12.0343C94.2147 12.5304 94.5944 13.1334 94.8607 13.8435C95.127 14.5536 95.2602 15.3536 95.2602 16.2436V17.1774H85.1111V14.9597H91.5024C91.4974 14.6387 91.4136 14.3566 91.2509 14.1134C91.0931 13.8654 90.8785 13.6733 90.6073 13.5371C90.341 13.3961 90.0377 13.3256 89.6974 13.3256C89.367 13.3256 89.0637 13.3961 88.7876 13.5371C88.5114 13.6733 88.2895 13.863 88.1218 14.1061C87.9591 14.3493 87.8728 14.6338 87.8629 14.9597V17.3525C87.8629 17.7124 87.9394 18.0334 88.0922 18.3155C88.2451 18.5976 88.4646 18.8189 88.7506 18.9794C89.0366 19.1399 89.3818 19.2201 89.7862 19.2201C90.0673 19.2201 90.3237 19.1812 90.5555 19.1034C90.7922 19.0256 90.9944 18.9137 91.1621 18.7678C91.3298 18.617 91.4531 18.4371 91.532 18.2279H95.2602C95.132 19.0061 94.8287 19.6821 94.3503 20.256C93.872 20.8251 93.2383 21.2676 92.4492 21.5838C91.6651 21.895 90.7478 22.0506 89.6974 22.0506Z" fill="white"/>
<path d="M96.9264 21.8464V10.6409H100.891V12.7711H101.01C101.217 11.9832 101.545 11.4069 101.994 11.0421C102.447 10.6774 102.977 10.495 103.584 10.495C103.761 10.495 103.937 10.5096 104.109 10.5388C104.287 10.5631 104.457 10.5996 104.62 10.6482V14.0843C104.417 14.0162 104.168 13.9651 103.872 13.9311C103.577 13.897 103.323 13.88 103.111 13.88C102.711 13.88 102.351 13.97 102.031 14.1499C101.715 14.325 101.466 14.573 101.283 14.894C101.101 15.2102 101.01 15.5822 101.01 16.0102V21.8464H96.9264Z" fill="white"/>
<path d="M105.958 21.8464V10.6409H110.042V21.8464H105.958ZM108 9.47367C107.448 9.47367 106.974 9.29372 106.58 8.93382C106.185 8.57393 105.988 8.14108 105.988 7.63527C105.988 7.12947 106.185 6.69662 106.58 6.33672C106.974 5.97682 107.448 5.79688 108 5.79688C108.557 5.79688 109.031 5.97682 109.42 6.33672C109.815 6.69662 110.012 7.12947 110.012 7.63527C110.012 8.14108 109.815 8.57393 109.42 8.93382C109.031 9.29372 108.557 9.47367 108 9.47367Z" fill="white"/>
<path d="M117.596 22.0506C116.363 22.0506 115.308 21.8099 114.43 21.3284C113.552 20.8421 112.879 20.166 112.411 19.3003C111.942 18.4298 111.708 17.4206 111.708 16.2728C111.708 15.125 111.942 14.1183 112.411 13.2526C112.879 12.382 113.552 11.706 114.43 11.2245C115.308 10.7382 116.363 10.495 117.596 10.495C118.829 10.495 119.884 10.7382 120.762 11.2245C121.64 11.706 122.313 12.382 122.782 13.2526C123.25 14.1183 123.484 15.125 123.484 16.2728C123.484 17.4206 123.25 18.4298 122.782 19.3003C122.313 20.166 121.64 20.8421 120.762 21.3284C119.884 21.8099 118.829 22.0506 117.596 22.0506ZM117.626 19.0742C117.971 19.0742 118.269 18.9599 118.521 18.7313C118.772 18.5027 118.967 18.1769 119.105 17.7538C119.243 17.3306 119.312 16.8273 119.312 16.2436C119.312 15.6552 119.243 15.1518 119.105 14.7335C118.967 14.3104 118.772 13.9846 118.521 13.756C118.269 13.5274 117.971 13.4131 117.626 13.4131C117.261 13.4131 116.948 13.5274 116.686 13.756C116.425 13.9846 116.225 14.3104 116.087 14.7335C115.949 15.1518 115.88 15.6552 115.88 16.2436C115.88 16.8273 115.949 17.3306 116.087 17.7538C116.225 18.1769 116.425 18.5027 116.686 18.7313C116.948 18.9599 117.261 19.0742 117.626 19.0742Z" fill="white"/>
<path fill-rule="evenodd" clip-rule="evenodd" d="M6.44281 2.6729C5.36509 3.41609 4.39054 4.29477 3.54454 5.2839C7.00168 4.96737 11.3939 5.48423 16.4931 7.99871C21.9385 10.6838 26.3233 10.7745 29.3749 10.194C29.098 9.36724 28.7494 8.57262 28.3365 7.81722C24.8432 8.18058 20.3648 7.69962 15.1456 5.12609C11.8314 3.49183 8.9099 2.81862 6.44281 2.6729ZM26.2959 4.95274C23.5372 1.913 19.5282 0 15.0661 0C13.7557 0 12.4843 0.165006 11.2722 0.475079C12.9138 0.916819 14.6577 1.56308 16.4931 2.46816C20.3143 4.35238 23.6134 4.95907 26.2959 4.95274ZM30.0274 13.0961C26.3407 13.8141 21.2498 13.6666 15.1456 10.6566C9.43888 7.84263 4.8968 7.87807 1.83347 8.54944C1.67535 8.58406 1.52095 8.62046 1.37028 8.65835C0.969217 9.51857 0.649073 10.4231 0.419366 11.3625C0.664705 11.2978 0.918226 11.2364 1.1798 11.1791C4.89616 10.3646 10.1471 10.4 16.4931 13.5293C22.1999 16.3433 26.742 16.3078 29.8054 15.6365C29.9103 15.6135 30.0137 15.5897 30.1154 15.5652C30.1266 15.331 30.1322 15.0953 30.1322 14.8583C30.1322 14.2621 30.0966 13.6741 30.0274 13.0961ZM29.6235 18.7008C25.9726 19.3303 21.03 19.0887 15.1456 16.1872C9.43888 13.3732 4.8968 13.4086 1.83347 14.08C1.1535 14.2289 0.541806 14.4104 0.00220718 14.602C0.000735979 14.6872 0 14.7727 0 14.8583C0 23.0643 6.74531 29.7165 15.0661 29.7165C22.0395 29.7165 27.9064 25.0443 29.6235 18.7008Z" fill="#7F57F1"/>
</g>
<defs>
<clipPath id="clip0_953_514">
<rect width="123.484" height="29.7165" fill="white"/>
</clipPath>
</defs>
</svg>
